<?xml version="1.0" standalone="no"?>
<!DOCTYPE svg PUBLIC "-//W3C//DTD SVG 1.1//EN" "http://www.w3.org/Graphics/SVG/1.1/DTD/svg11.dtd" >
<!--
2013-9-30: Created.
-->
<svg>
<metadata>
Created by iconfont
</metadata>
<defs>

<font id="iconfont" horiz-adv-x="1024" >
  <font-face
    font-family="iconfont"
    font-weight="500"
    font-stretch="normal"
    units-per-em="1024"
    ascent="896"
    descent="-128"
  />
    <missing-glyph />
    
    <glyph glyph-name="x" unicode="x" horiz-adv-x="1001"
d="M281 543q-27 -1 -53 -1h-83q-18 0 -36.5 -6t-32.5 -18.5t-23 -32t-9 -45.5v-76h912v41q0 16 -0.5 30t-0.5 18q0 13 -5 29t-17 29.5t-31.5 22.5t-49.5 9h-133v-97h-438v97zM955 310v-52q0 -23 0.5 -52t0.5 -58t-10.5 -47.5t-26 -30t-33 -16t-31.5 -4.5q-14 -1 -29.5 -0.5
t-29.5 0.5h-32l-45 128h-439l-44 -128h-29h-34q-20 0 -45 1q-25 0 -41 9.5t-25.5 23t-13.5 29.5t-4 30v167h911zM163 247q-12 0 -21 -8.5t-9 -21.5t9 -21.5t21 -8.5q13 0 22 8.5t9 21.5t-9 21.5t-22 8.5zM316 123q-8 -26 -14 -48q-5 -19 -10.5 -37t-7.5 -25t-3 -15t1 -14.5
t9.5 -10.5t21.5 -4h37h67h81h80h64h36q23 0 34 12t2 38q-5 13 -9.5 30.5t-9.5 34.5q-5 19 -11 39h-368zM336 498v228q0 11 2.5 23t10 21.5t20.5 15.5t34 6h188q31 0 51.5 -14.5t20.5 -52.5v-227h-327z" />
    

    
    <glyph glyph-name="weixin" unicode="&#58925;" d="M676.4641 471.0081c11.3468 0 22.5756-0.8124 33.7085-2.0586C679.8779 610.0098 529.072 714.8168 356.9226 714.8168 164.4582 714.8168 6.8137 583.6567 6.8137 417.0826c0-96.1848 52.4486-175.1043 140.0968-236.3607l-35.0167-105.3126 122.392 61.3644c43.7921-8.6541 78.9327-17.5801 122.6349-17.5801 10.987 0 21.8771 0.5486 32.6852 1.3951-6.8376 23.3921-10.8071 47.9045-10.8071 73.3603C378.8007 346.8982 510.15 471.0081 676.4641 471.0081zM485.7476 573.0409c29.894 0 54.1265-24.2336 54.1265-54.1283s-24.2326-54.1273-54.1265-54.1273c-29.896 0-54.1285 24.2336-54.1285 54.1273S455.8536 573.0409 485.7476 573.0409zM240.7886 463.694c-29.894 0-54.1285 24.2336-54.1285 54.1273 0 29.8937 24.2346 54.1273 54.1285 54.1273 29.896 0 54.1295-24.2336 54.1295-54.1273C294.9181 487.9286 270.6846 463.694 240.7886 463.694zM993.5351 197.0158c0 139.9711-140.0618 254.0677-297.3786 254.0677-166.5829 0-297.7783-114.0966-297.7783-254.0677 0-140.2129 131.1954-254.0607 297.7783-254.0607 34.8608 0 70.0314 8.8 105.0481 17.5771l96.0358-52.5993-26.3372 87.4927C941.1815 48.1468 993.5351 118.0574 993.5351 197.0158zM604.6728 236.2542c-21.2884 0-38.5444 17.2593-38.5444 38.5459 0 21.2886 17.257 38.5439 38.5444 38.5439s38.5444-17.2563 38.5444-38.5439C643.2193 253.5125 625.9603 236.2542 604.6728 236.2542zM797.1392 234.0677c-21.2904 0-38.5454 17.2583-38.5454 38.5439 0 21.2896 17.256 38.5439 38.5454 38.5439 21.2874 0 38.5444-17.2553 38.5444-38.5439C835.6847 251.326 818.4267 234.0677 797.1392 234.0677z"  horiz-adv-x="1000" />

    
    <glyph glyph-name="jiantou" unicode="&#58920;" d="M952.946447 112.499576 577.969694 487.488376 577.969694 487.488376 512 553.446024 512 553.446024 512 553.446024 446.030306 487.488376 446.030306 487.488376 71.0656 112.499576 137.035294 46.541929 512 421.518682 886.976753 46.541929Z"  horiz-adv-x="1024" />

    
    <glyph glyph-name="qq" unicode="&#58931;" d="M138.898978 233.220061c-31.677467-78.904071-36.918841-154.138566-11.405771-168.116929 17.649985-9.699919 45.131897 12.492522 70.999031 52.862975 10.263761-44.213991 35.560914-83.884502 71.736834-115.953895-37.879726-14.765285-62.696947-38.883589-62.696947-66.146513 0-44.913932 67.021439-81.175811 149.682068-81.175811 74.577532 0 136.356574 29.446659 147.757229 68.24429 3.016707 0 14.859429 0 17.740036 0 11.621688-38.797631 73.266677-68.24429 147.932214-68.24429 82.751702 0 149.682068 36.262902 149.682068 81.175811 0 27.262924-24.772196 51.205219-62.74095 66.146513 36.045961 32.069393 61.517075 71.738881 71.695902 115.953895 25.862018-40.370453 53.214992-62.563918 70.954005-52.862975 25.64303 13.978363 20.531616 89.212858-11.449773 168.116929-24.987091 61.778019-58.848293 107.389846-84.670401 117.612675 0.349971 3.756557 0.655939 7.909134 0.655939 11.884678 0 23.942295-6.378268 46.048779-17.253966 64.049758 0.217964 1.440815 0.217964 2.795673 0.217964 4.236488 0 11.053754-2.491751 21.321608-6.77224 30.191626C774.452969 622.016041 674.97021 749.8935 513.887488 749.8935c-161.042813 0-260.655532-127.878482-267.164782-288.700261-4.192485-8.999978-6.771217-19.311835-6.771217-30.321586 0-1.442862 0-2.795673 0.174985-4.238534-10.658757-17.868973-17.039072-39.974433-17.039072-64.004733 0-4.02057 0.216941-8.040117 0.480954-11.971659C197.836299 340.521902 163.845137 294.998079 138.898978 233.220061z"  horiz-adv-x="1024" />

    
    <glyph glyph-name="douban" unicode="&#58932;" d="M881.777778 698.222222 170.666667 698.222222l0-85.333333 711.111111 0L881.777778 698.222222zM824.888889 186.222222 824.888889 527.555556 227.555556 527.555556l0-341.333333L824.888889 186.222222zM312.888889 442.222222l426.666667 0 0-170.666667L312.888889 271.555556 312.888889 442.222222zM711.111111 15.555556c27.505778 42.126222 45.056 81.436444 69.091556 136.874667l-91.960889 33.507556C664.348444 120.259556 657.464889 69.713778 625.777778 15.555556l-170.666667 0c-26.510222 70.172444-66.730667 120.689778-100.295111 170.353778l-84.565333-33.507556C305.123556 100.092444 348.216889 60.896 369.777778 15.555556L142.222222 15.555556l0-85.333333 768 0 0 85.333333L711.111111 15.555556z"  horiz-adv-x="1024" />

    
    <glyph glyph-name="shoucang1" unicode="&#58967;" d="M509.606998 752.885512c9.082866 0 17.327644-4.840238 20.996197-12.331863l97.262184-197.441814c5.613858-11.403724 16.663518-19.358907 29.438473-21.216207l223.738737-32.552393c8.420787-1.215688 15.604396-6.851035 18.23327-14.254655 2.520403-7.18361 0.595564-15.062044-5.084808-20.586874L730.253304 294.388053c-8.949836-8.751315-12.994965-21.171182-10.916631-33.370015l38.011732-222.060515c1.325182-7.737218-2.165316-15.426341-8.905834-19.978007-4.088108-2.741437-8.861832-4.155646-13.812587-4.155646-4.022617 0-7.999185 0.972141-11.425214 2.740414L528.149307 120.328785c-5.768377 3.006474-12.155854 4.552689-18.542308 4.552689-6.364965 0-12.727882-1.547239-18.518772-4.552689L296.254819 17.651264c-3.559059-1.855254-7.602142-2.828418-11.668761-2.828418-4.861728 0-9.723455 1.459235-13.546527 4.022617-6.961552 4.684696-10.475586 12.419867-9.127891 20.155039l38.011732 222.016513c2.078335 12.198833-1.988284 24.619724-10.939143 33.370015L125.02397 454.556962c-5.635347 5.492084-7.55814 13.348006-5.061272 20.453844 2.63092 7.481392 9.812483 13.116739 18.298761 14.332427l223.674269 32.552393c12.839423 1.857301 23.867594 9.813506 29.481452 21.216207l97.194646 197.396789C492.325403 748.034017 500.590648 752.885512 509.606998 752.885512M509.606998 791.095765c-24.043602 0-45.922912-13.226233-56.177464-33.95637L356.189863 559.697581l-223.674269-32.54216c-22.983457-3.304256-42.100864-18.718317-49.481971-39.659255-7.381108-21.048385-1.812275-44.23241 14.431687-60.033281l163.916257-160.125931-38.011732-222.016513c-3.868097-22.408359 6.03239-44.819788 25.458835-57.94676 10.69662-7.116071 23.204491-10.784624 35.757388-10.784624 10.298554 0 20.663622 2.475378 30.055526 7.337105l194.987926 102.7205L704.662463-16.072815c9.369392-4.861728 19.712971-7.337105 29.990035-7.337105 12.57541 0 25.082258 3.668553 35.778878 10.784624 19.426445 13.126972 29.305443 35.538401 25.460882 57.94676l-38.012755 222.016513 163.937746 160.125931c16.22145 15.812127 21.810748 38.984896 14.408151 60.033281-7.402597 20.940938-26.51898 36.353976-49.503461 39.659255L663.04767 559.697581l-97.240695 197.441814C555.619962 777.868509 533.695626 791.095765 509.606998 791.095765L509.606998 791.095765z"  horiz-adv-x="1024" />

    
    <glyph glyph-name="jiantou1" unicode="&#58921;" d="M891.367749 556.565377 511.980046 173.979842 129.436466 553.346055 66.206376 489.577706 512.550027 47.003915 955.123818 493.347566Z"  horiz-adv-x="1024" />

    
    <glyph glyph-name="jianhao" unicode="&#58922;" d="M165.389818 369.358671 858.926384 369.358671l0-138.707109L165.389818 230.651562 165.389818 369.358671z"  horiz-adv-x="1024" />

    
    <glyph glyph-name="icon" unicode="&#58923;" d="M764.345 289.648l-409.238 446.351-75.173-69.859 343.17-374.301-375.847-378.386 72.354-72.854 443.325 446.352-0.717 0.721z"  horiz-adv-x="1024" />

    
    <glyph glyph-name="bianji" unicode="&#58937;" d="M769.089 432.251l-125.896 125.89 62.974 62.947c20.866 20.838 54.652 20.838 75.517 0l50.353-50.351c20.865-20.865 20.865-54.703 0-75.567L769.089 432.251zM403.349 66.527 277.453 192.418 619.706 531.982 745.601 406.09ZM176.314-36.717 252.912 167.877 377.753 43.012Z"  horiz-adv-x="1024" />

    
    <glyph glyph-name="youhuiquan" unicode="&#58966;" d="M934.925 483.514c24.201 16.066 24.878 28.351 24.878 49.756 0 29.042 0 149.263 0 149.263 0 41.218-33.416 74.634-74.634 74.634l-746.339 0c-41.218 0-74.634-33.416-74.634-74.634 0 0 0-137.401 0-149.263 0-22.296 1.552-37.168 24.878-49.756 33.988-15.827 74.634-47.806 74.634-99.517 0-67.106-42.183-88.939-73.166-99.403-21.808-13.648-26.346-36.123-26.346-49.861 0-11.847 0-149.268 0-149.268 0-41.223 33.416-74.634 74.634-74.634h746.339c41.218 0 74.634 33.411 74.634 74.634 0 0 0 99.507 0 149.268 0 27.172-6.239 35.784-24.878 49.756-54.339 28.013-74.634 52.95-74.634 99.512 0.001 46.561 19.008 69.732 74.635 99.511zM910.048 243.869v-133.53c0-27.475-22.275-49.756-49.756-49.756l-696.584 0c-27.48 0-49.756 22.28-49.756 49.756l-0 133.53c57.846 20.564 99.512 75.231 99.512 140.127 0 64.902-41.666 119.568-99.512 140.127v133.531c0 27.48 22.275 49.756 49.756 49.756h696.584c27.48 0 49.756-22.275 49.756-49.756v-133.53c-57.841-20.559-99.512-75.226-99.512-140.127 0-64.897 41.671-119.564 99.512-140.128zM648.828 433.758h-93.919l101.95 109.538c4.408 4.817 4.408 12.633 0 17.455l-15.956 17.455c-4.408 4.822-11.548 4.822-15.956 0l-113.065-121.475-113.111 121.515c-4.374 4.782-11.464 4.782-15.833 0l-15.833-17.32c-4.374-4.782-4.374-12.533 0-17.315l102.254-109.851h-94.188c-6.872 0-12.439-5.573-12.439-12.439v-24.883c0-6.872 5.568-12.439 12.439-12.439h111.951v-49.756h-111.951c-6.872 0-12.439-5.568-12.439-12.439v-24.878c0-6.866 5.568-12.439 12.439-12.439h111.951v-87.073c0-6.866 5.568-12.439 12.439-12.439h24.878c6.872 0 12.439 5.573 12.439 12.439v87.073h111.951c6.872 0 12.439 5.573 12.439 12.439v24.878c0 6.872-5.568 12.439-12.439 12.439h-111.951v49.756h111.951c6.872 0 12.439 5.568 12.439 12.439v24.883c0 6.867-5.568 12.439-12.439 12.439z"  horiz-adv-x="1024" />

    
    <glyph glyph-name="shanchu" unicode="&#58941;" d="M817.968553 596.102858l-169.357176 0 0 58.869782c0 25.391297-20.657482 46.048779-46.048779 46.048779l-181.125197 0c-25.391297 0-46.048779-20.657482-46.048779-46.048779l0-58.869782-169.357176 0c-25.391297 0-46.048779-20.657482-46.048779-46.048779l0-71.631434c0-25.391297 20.657482-46.048779 46.048779-46.048779l28.321022 0 0-425.947112c0-59.246359 48.200792-107.447151 107.447151-107.447151l340.40076 0c59.246359 0 107.447151 48.200792 107.447151 107.447151L789.647531 432.373867l28.321022 0c25.391297 0 46.048779 20.657482 46.048779 46.048779l0 71.631434C864.017332 575.445376 843.35985 596.102858 817.968553 596.102858zM426.553932 649.85611l170.892135 0 0-53.753251-170.892135 0L426.553932 649.85611zM738.482221 6.425731c0-31.033807-25.248034-56.281841-56.281841-56.281841L341.79962-49.85611c-31.033807 0-56.281841 25.248034-56.281841 56.281841L285.517779 432.373867l452.964442 0L738.482221 6.425731zM812.852022 483.539176l-601.704045 0 0 61.398372 203.227588 0c2.302439-0.356111 4.66116-0.542352 7.061836-0.542352l181.125197 0c2.400676 0 4.759397 0.186242 7.062859 0.542352l203.226564 0L812.852022 483.539176zM513.023306 28.679571c14.128789 0 25.582655 11.453866 25.582655 25.582655l0 288.572348c0 14.128789-11.453866 25.582655-25.582655 25.582655-14.128789 0-25.582655-11.453866-25.582655-25.582655l0-288.572348C487.440651 40.133438 498.894518 28.679571 513.023306 28.679571zM645.541459 28.679571c14.128789 0 25.582655 11.453866 25.582655 25.582655l0 288.572348c0 14.128789-11.453866 25.582655-25.582655 25.582655s-25.582655-11.453866-25.582655-25.582655l0-288.572348C619.958804 40.133438 631.41267 28.679571 645.541459 28.679571zM380.505154 28.679571c14.128789 0 25.582655 11.453866 25.582655 25.582655l0 288.572348c0 14.128789-11.453866 25.582655-25.582655 25.582655s-25.582655-11.453866-25.582655-25.582655l0-288.572348C354.922499 40.133438 366.376365 28.679571 380.505154 28.679571z"  horiz-adv-x="1024" />

    
    <glyph glyph-name="iconfontyanjing" unicode="&#58928;" d="M511.465834 542.431471c169.452343 0 315.308269-99.390661 383.564839-242.839771l66.51388 0c-72.088852 177.909969-246.292406 303.525921-450.078719 303.525921-203.75459 0-377.958144-125.616976-450.046996-303.525921l66.514903 0C196.189288 443.04081 342.045213 542.431471 511.465834 542.431471zM511.465834 56.75193c-169.420621 0-315.276547 99.390661-383.532093 242.839771l-66.514903 0c72.087828-177.940668 246.291382-303.557644 450.046996-303.557644 203.786313 0 377.989867 125.616976 450.078719 303.557644l-66.51388 0C826.774103 156.142591 680.919201 56.75193 511.465834 56.75193zM349.594143 299.576351c0-89.412402 72.473615-161.886017 161.884994-161.886017 89.413426 0 161.886017 72.473615 161.886017 161.886017 0 89.413426-72.472592 161.886017-161.886017 161.886017C422.066735 461.462369 349.594143 388.989777 349.594143 299.576351zM612.67798 299.576351c0-55.879682-45.320185-101.19782-101.198843-101.19782s-101.166097 45.318138-101.166097 101.19782c0 55.879682 45.287439 101.198843 101.166097 101.198843S612.67798 355.456033 612.67798 299.576351z"  horiz-adv-x="1024" />

    
    <glyph glyph-name="jiahao" unicode="&#58924;" d="M895.955484 351.242058l-326.173098 0L569.782386 677.402489c0 23.736611-19.243057 42.97886-42.980664 42.97886s-42.980664-19.24225-42.980664-42.97886l0-326.160431-326.174121 0c-23.737607 0-42.980664-19.24225-42.980664-42.97886s19.243057-42.97886 42.980664-42.97886l326.174121 0 0-326.159408c0-23.736611 19.243057-42.97886 42.980664-42.97886s42.980664 19.24225 42.980664 42.97886L569.782386 265.284337l326.173098 0c23.737607 0 42.980664 19.24225 42.980664 42.97886S919.693091 351.242058 895.955484 351.242058zM531.954285 667.426277"  horiz-adv-x="1024" />

    
    <glyph glyph-name="yanjing" unicode="&#58929;" d="M513.111 118.249c90.602 0 164.302 76.158 164.302 169.751s-73.7 169.751-164.302 169.751-164.302-76.158-164.302-169.751 73.7-169.751 164.302-169.751zM513.111 418.071c68.726 0 124.622-58.357 124.622-130.071s-55.896-130.071-124.622-130.071-124.622 58.357-124.622 130.071 55.896 130.071 124.622 130.071zM41.633 286.016c78.883-202.183 265.697-332.81 475.843-332.81 210.225 0 397.064 130.627 475.948 332.81l2.805 7.195-2.805 7.195c-78.911 202.156-265.75 332.783-475.948 332.783-210.145 0-396.933-130.627-475.843-332.756l-2.805-7.195 2.805-7.222zM517.475 593.509c191.23 0 361.617-117.585 436.11-300.298-74.493-182.713-244.879-300.35-436.11-300.35-191.205 0-361.511 117.612-436.003 300.35 74.493 182.713 244.798 300.298 436.003 300.298z"  horiz-adv-x="1024" />

    
    <glyph glyph-name="faxian" unicode="&#58880;" d="M511.466 626.431c169.452 0 315.308-99.391 383.565-242.84h66.514c-72.089 177.91-246.292 303.526-450.079 303.526-203.755 0-377.958-125.617-450.047-303.526h66.515c68.256 143.449 214.111 242.84 383.532 242.84zM511.466 140.752c-169.421 0-315.277 99.391-383.532 242.84h-66.515c72.088-177.941 246.291-303.558 450.047-303.558 203.786 0 377.99 125.617 450.079 303.558h-66.514c-68.257-143.449-214.111-242.84-383.565-242.84zM349.594 383.576c0-89.412 72.474-161.886 161.885-161.886 89.413 0 161.886 72.474 161.886 161.886 0 89.413-72.473 161.886-161.886 161.886-89.412 0-161.885-72.473-161.885-161.886zM612.678 383.576c0-55.88-45.32-101.198-101.199-101.198s-101.166 45.318-101.166 101.198c0 55.88 45.287 101.199 101.166 101.199s101.199-45.319 101.199-101.199z"  horiz-adv-x="1024" />

    
    <glyph glyph-name="jiantou2" unicode="&#58927;" d="M666.40551 393.544718 428.317513 631.632715 398.557959 601.87316 606.890256 393.544718 398.557959 185.21242 428.317513 155.454793 636.645956 363.783236 636.647883 363.783236Z"  horiz-adv-x="1024" />

    
    <glyph glyph-name="duigou" unicode="&#58930;" d="M906.755835 691.14439c-12.825888 0-24.411086-5.289708-32.711431-13.798112l-0.039311 0.039311L382.806292 185.64794 152.590382 416.792929l-0.069034-0.067116c-8.372255 9.401049-20.561498 15.326442-34.140045 15.326442-25.245243 0-45.710861-20.465618-45.710861-45.710861 0-13.51239 5.866906-25.650816 15.188375-34.019236l-0.050816-0.050816 262.514097-263.56782c0.059446-0.060404 0.113139-0.123685 0.173543-0.183131 8.286921-8.385678 19.794457-13.582382 32.514876-13.582382 12.733843 0 24.252884 5.20821 32.540764 13.606352l522.539146 523.625468c8.845903 8.33582 14.37627 20.150172 14.37627 33.2637C952.467655 670.678772 932.001079 691.14439 906.755835 691.14439z"  horiz-adv-x="1024" />

    
    <glyph glyph-name="dian" unicode="&#58935;" d="M512 469.333333c47.125333 0 85.333333-38.208 85.333333-85.333333s-38.208-85.333333-85.333333-85.333333c-47.125333 0-85.333333 38.208-85.333333 85.333333S464.874667 469.333333 512 469.333333z"  horiz-adv-x="1024" />

    
    <glyph glyph-name="iconfont16x16moban" unicode="&#58933;" d="M425.28 891.2l0-323.264c0-112.064-28.096-214.08-84.224-306.304-56.128-92.16-129.664-160.256-220.416-204.224C40.192 152.96 0 262.912 0 387.328c0 83.2 18.624 160.704 55.744 232.96C92.8 692.608 143.68 752.512 208.64 799.872 273.6 847.424 345.856 877.952 425.28 891.2L425.28 891.2 425.28 891.2zM755.2-60.544c-76.032-41.664-157.76-62.656-245.312-62.656-87.168 0-168.64 20.928-244.672 62.656 61.376 38.784 113.536 85.504 156.928 140.544 43.392 55.104 72.512 114.624 87.552 178.688 15.488-63.872 45.056-123.584 88.384-178.688C641.664 24.96 694.016-22.016 755.2-60.544L755.2-60.544 755.2-60.544zM1024 387.328c0-124.416-40.192-234.432-120.64-329.92-90.688 43.968-164.032 112.064-220.416 204.224-56.128 92.16-84.224 194.432-84.224 306.304L598.72 891.2c79.616-13.376 151.68-43.776 216.64-91.328 64.96-47.552 115.84-107.456 152.96-179.52C1005.376 548.032 1024 470.528 1024 387.328L1024 387.328 1024 387.328zM1024 387.328M425.28 891.2l0-323.264c0-112.064-28.096-214.08-84.224-306.304-56.128-92.16-129.664-160.256-220.416-204.224C40.192 152.96 0 262.912 0 387.328c0 83.2 18.624 160.704 55.744 232.96C92.8 692.608 143.68 752.512 208.64 799.872 273.6 847.424 345.856 877.952 425.28 891.2L425.28 891.2 425.28 891.2zM755.2-60.544c-76.032-41.664-157.76-62.656-245.312-62.656-87.168 0-168.64 20.928-244.672 62.656 61.376 38.784 113.536 85.504 156.928 140.544 43.392 55.104 72.512 114.624 87.552 178.688 15.488-63.872 45.056-123.584 88.384-178.688C641.664 24.96 694.016-22.016 755.2-60.544L755.2-60.544 755.2-60.544zM1024 387.328c0-124.416-40.192-234.432-120.64-329.92-90.688 43.968-164.032 112.064-220.416 204.224-56.128 92.16-84.224 194.432-84.224 306.304L598.72 891.2c79.616-13.376 151.68-43.776 216.64-91.328 64.96-47.552 115.84-107.456 152.96-179.52C1005.376 548.032 1024 470.528 1024 387.328L1024 387.328 1024 387.328zM1024 387.328"  horiz-adv-x="1025" />

    
    <glyph glyph-name="kongjian-copy" unicode="&#58934;" d="M298.792 216.649c23.492 26.601 325.697 197.266 325.697 197.266l-394.589 53.261 527.681 6.275c0 0 18.801-15.663 0-37.597-18.77-21.938-299.066-214.51-299.066-214.51l318.712-25.54-9.687 56.532 255.846 249.381-353.553 51.35-158.143 320.402-158.139-320.403-353.553-51.348 255.846-249.381-60.38-352.186 316.225 166.269 316.228-166.269-49.576 289.161-479.553-21.229c0.001 0-23.491 21.938 0.001 48.567zM777.226 195.803l1.117-6.493 51.269 2.291z"  horiz-adv-x="1024" />

    
    <glyph glyph-name="shuangjiantou" unicode="&#59043;" d="M544.388153 663.670607 510.940366 630.220774 740.906945 400.274662 510.940366 170.248731 544.408619 136.839831 807.825031 400.23373ZM279.75503 663.670607 246.30622 630.220774 476.272799 400.274662 246.30622 170.248731 279.775496 136.839831 543.190885 400.23373Z"  horiz-adv-x="1024" />

    
    <glyph glyph-name="baochou" unicode="&#58881;" d="M504.394063 106.804549c-17.868892 0-32.369677 14.501793-32.369677 32.369677l0 97.115075-97.115075 0c-17.868892 0-32.369677 14.500785-32.369677 32.369677 0 17.868892 14.500785 32.369677 32.369677 32.369677l97.115075 0 0 64.746405-97.115075 0c-17.868892 0-32.369677 14.501793-32.369677 32.36867 0 17.868892 14.500785 32.369677 32.369677 32.369677l97.115075 0 0 19.036247L351.993296 569.582758c-6.345416 6.345416-9.453662 14.630715-9.453662 22.916015 0 8.286307 3.108246 16.578657 9.453662 22.91803 12.689824 12.689824 33.14825 12.689824 45.838073 0l106.692623-106.692623 106.698667 106.692623c12.685795 12.689824 33.14825 12.689824 45.834045 0 6.345416-6.339372 9.453662-14.630715 9.453662-22.91803 0-8.2853-3.108246-16.5706-9.453662-22.916015L537.0236 449.550661l0-19.036247 97.116082 0c17.868892 0 32.369677-14.501793 32.369677-32.369677 0-17.866877-14.500785-32.36867-32.369677-32.36867l-97.116082 0 0-64.746405 97.116082 0c17.868892 0 32.369677-14.501793 32.369677-32.369677 0-17.868892-14.500785-32.369677-32.369677-32.369677l-97.116082 0 0-97.115075C536.76374 121.305335 522.262954 106.804549 504.394063 106.804549L504.394063 106.804549zM504.394063 106.804549M504.525-127.658556c-67.969473 0-133.926543 13.320337-196.037082 39.592372-59.973242 25.365547-113.826683 61.672403-160.064619 107.911346-46.237935 46.236928-82.543785 100.090369-107.911346 160.063612C14.240926 242.021326 0.920589 307.977389 0.920589 375.945855c0 67.969473 13.320337 133.926543 39.591364 196.037082 25.367561 59.973242 61.672403 113.826683 107.911346 160.064619S248.513669 814.592347 308.486911 839.959908c62.111546 26.271028 128.067609 39.591364 196.037082 39.591364 88.216385 0 175.030735-23.151702 251.058885-66.952192 29.648199-17.080247 57.679828-37.289892 83.315307-60.06792 15.894762-14.123082 17.333057-38.45624 3.209975-54.353017-14.124089-15.896777-38.45624-17.331042-54.354024-3.209975-21.731538 19.308193-45.487565 36.436786-70.609367 50.910377-64.355608 37.07435-137.877823 56.670604-212.620775 56.670604-235.229591 0-426.603296-191.373705-426.603296-426.603296s191.373705-426.603296 426.603296-426.603296 426.603296 191.373705 426.603296 426.603296c0 71.566216-18.052204 142.340765-52.20464 204.671883-10.218133 18.647464-3.384222 42.046939 15.265257 52.264066 18.647464 10.216119 42.046939 3.3812 52.264066-15.265257 40.349793-73.641066 61.676432-157.210189 61.676432-241.671699 0-67.968466-13.320337-133.925535-39.592372-196.037082-25.365547-59.973242-61.672403-113.826683-107.911346-160.063612-46.236928-46.237935-100.090369-82.544792-160.063612-107.911346C638.449528-114.33822 572.493465-127.658556 504.525-127.658556z"  horiz-adv-x="1024" />

    
    <glyph glyph-name="bianji1" unicode="&#58882;" d="M978.427058 508.631532c-21.729907 0-39.477107-17.749246-39.559994-39.5866l0-462.350207c0-21.305235-17.342993-38.639019-38.660508-38.639019L118.057813-31.944294c-21.3564 0-38.73214 17.33276-38.73214 38.639019L79.325673 761.329834c0 21.331841 17.375739 38.685068 38.73214 38.685068l503.752152 0c21.772886 0 39.486316 17.72571 39.486316 39.512922 0 21.773909-17.712407 39.488363-39.486316 39.488363L112.852254 879.016187c-62.048171 0-112.526843-50.468438-112.526843-112.502283l0-765.054413c0-62.018495 50.479695-112.475677 112.526843-112.475677l792.538371 0c62.048171 0 112.526843 50.456159 112.526843 112.475677L1017.917468 469.265966C1017.803881 490.972337 1000.088404 508.631532 978.427058 508.631532zM316.564889 333.72906c-0.719384-0.980327-1.564635-2.296299-2.016937-3.962242l-50.948369-186.794313c-3.454682-12.674671 0.163729-26.454512 9.444093-35.96205l0.100284-0.100284c7.045463-6.840802 16.312524-10.608615 26.094308-10.608615 3.357468 0 6.630001 0.425695 9.733689 1.2689l183.954639 50.169633c0.26299-0.037862 0.529049-0.057305 0.798179-0.057305 3.64911 0 7.05365 1.418302 9.55461 3.962242l495.996514 495.918743c15.705704 15.734356 24.354688 37.20332 24.354688 60.45386 0 26.194592-11.095709 52.30118-30.435173 71.619154l-46.851051 46.923706c-19.34765 19.374256-45.460378 30.486338-71.644737 30.486338-23.221888 0-44.706201-8.639774-60.510142-24.340361L318.355675 336.684368C317.28018 335.672318 316.804343 334.525192 316.564889 333.72906zM870.183775 776.598586c2.296299 2.310625 5.756097 3.582595 9.742898 3.582595 5.198395 0 10.477632-2.180666 14.122649-5.835915l46.851051-46.923706c3.903913-3.90596 6.142907-9.025561 6.142907-14.047947 0-3.855818-1.342578-7.320733-3.777023-9.755178l-45.51052-45.463448-72.450079 73.587995L870.183775 776.598586zM767.341502 673.75529l72.454172-73.634044L490.059292 250.364397l-73.086575 72.997548L767.341502 673.75529zM372.838543 262.999159l56.08025-56.07718L351.825974 185.812195 372.838543 262.999159z"  horiz-adv-x="1040" />

    
    <glyph glyph-name="bubaoriqi" unicode="&#58883;" d="M721.534252 671.171388c38.171944 0 69.130309 30.611887 69.130309 68.357785L790.66456 811.157342c0 37.7741-30.958364 68.386994-69.130309 68.386994-38.163887 0-69.122251-30.611887-69.122251-68.386994l0-71.628169C652.412001 701.783275 683.370365 671.171388 721.534252 671.171388zM958.322379 765.276274c-6.737173 6.708972-15.545154 10.084105-24.340041 10.084105L827.943117 775.36038l0-34.723285c0-57.566624-47.139063-104.212158-105.30195-104.212158-58.18001 0-105.318065 46.644527-105.318065 104.212158L617.323101 775.36038 406.652726 775.36038l0-34.723285c0-57.566624-47.139063-104.212158-105.318065-104.212158-58.162887 0-105.32713 46.644527-105.32713 104.212158L196.00753 775.36038 89.992481 775.36038c-8.802944 0-17.60186-3.375134-24.319897-10.084105-6.737173-6.715015-10.082091-15.513931-10.082091-24.348098l0-834.15856c0-8.828125 3.34391-17.633083 10.082091-24.348098 6.717029-6.710986 15.515945-10.080076 24.319897-10.080076l843.982807 0c8.802944 0 17.609918 3.36909 24.348098 10.080076 6.737173 6.715015 10.08612 15.519974 10.08612 24.348098L968.409506 740.928176C968.408499 749.762344 965.06056 758.561259 958.322379 765.276274zM813.836247 58.9548 210.162746 58.9548l0 86.226554 603.673501 0L813.836247 58.9548zM813.836247 266.210761 210.162746 266.210761l0 86.224539 603.673501 0L813.836247 266.210761zM813.836247 473.466722 210.162746 473.466722l0 86.224539 603.673501 0L813.836247 473.466722zM300.243861 671.171388c38.171944 0 69.130309 30.611887 69.130309 68.357785L369.37417 811.157342c0 37.7741-30.958364 68.386994-69.130309 68.386994-38.163887 0-69.122251-30.611887-69.122251-68.386994l0-71.628169C231.12161 701.783275 262.079974 671.171388 300.243861 671.171388z"  horiz-adv-x="1024" />

    
    <glyph glyph-name="chazhao" unicode="&#58884;" d="M1006.00286-39.743484l-200.199324 200.198316c133.49274 175.481617 120.169956 427.708994-39.981445 587.865431C681.195674 832.943659 568.678739 879.549732 449.002331 879.549732c-119.678422 0-232.193343-46.606072-316.819761-131.229468C47.556153 663.694853 0.951088 551.176911 0.951088 431.500503c0-119.678422 46.605065-232.193343 131.231483-316.820768 84.626418-84.626418 197.141338-131.231483 316.819761-131.231483 99.219333 0 193.516276 32.035316 271.079916 91.211763l200.162056-200.162056c2.830349-2.830349 7.462652-2.830349 10.293001 0l75.465556 75.464549C1008.833209-47.206136 1008.833209-42.573833 1006.00286-39.743484zM210.530852 193.028016c-63.700975 63.698961-98.781183 148.388835-98.781183 238.472487 0 90.082645 35.0792 174.772519 98.781183 238.47148 63.696946 63.698961 148.388835 98.778161 238.47148 98.778161 90.083652 0 174.773526-35.080208 238.472487-98.778161 131.494373-131.494373 131.494373-345.451608 0-476.943966-63.698961-63.700975-148.388835-98.780175-238.472487-98.780175C358.919686 94.24784 274.229812 129.327041 210.530852 193.028016z"  horiz-adv-x="1024" />

    
    <glyph glyph-name="erweima" unicode="&#58885;" d="M142.554013 737.911836l78.689042 0 0-78.688034-78.689042 0L142.554013 737.911836 142.554013 737.911836zM362.885545 879.548283 0.918573 879.548283l0-361.966973 141.636448 0 0-62.948413 78.689042 0 0 62.948413 141.636448 0 0 78.689042 62.953449 0 0 62.953449-62.953449 0L362.880509 879.548283 362.885545 879.548283zM284.197511 596.270352 79.606607 596.270352 79.606607 800.860249l204.591911 0L284.198518 596.270352 284.197511 596.270352zM142.554013 92.666932l78.689042 0 0-78.684006-78.689042 0L142.554013 92.666932 142.554013 92.666932zM787.800931 737.911836l78.681991 0 0-78.688034-78.681991 0L787.800931 737.911836 787.800931 737.911836zM504.521993 382.292281l0-85.034445 78.688034 0 0 78.688034 62.94942 0 0 78.688034L583.210027 454.633905l0 62.948413-78.688034 0 0-63.349281L504.521993 382.292281zM504.521993 94.516164l0-80.539281 78.688034 0 0 80.539281 0 61.10321 62.94942 0 0 78.689042-65.375782 0-76.261673 0 0-67.84646L504.521993 94.516164zM583.210027 13.977891l62.94942 0 0-62.948413L583.210027-48.970522 583.210027 13.977891 583.210027 13.977891zM425.833958-48.970522l0-78.688034 83.003916 0 74.372153 0 0 78.688034-74.372153 0L425.833958-48.970522zM724.847482 155.619374l-78.688034 0 0-61.10321 0-80.539281 78.506737 0 63.134746 0 0 78.689042-62.953449 0L724.847482 155.619374zM787.800931-127.658557l80.752808 0 71.945792 0 67.625882 0 0 78.688034-67.625882 0-74.010566 0 0 62.948413-78.688034 0 0-63.349281L787.800931-127.658557zM1008.125413 375.944863l0 78.688034-67.625882 0-74.010566 0 0-78.688034 74.010566 0L1008.125413 375.944863zM929.437379 92.666932l78.688034 0 0-78.684006L929.437379 13.982927 929.437379 92.666932 929.437379 92.666932zM425.833958 596.270352l78.688034 0 0-78.684006L425.833958 517.586347 425.833958 596.270352 425.833958 596.270352zM787.800931 454.632898l0 62.948413 220.324482 0L1008.125413 879.548283 646.159448 879.548283l0-78.688034-65.375782 0-76.261673 0 0-62.948413 76.261673 0 65.375782 0 0-78.688034L583.210027 659.223802l0-62.953449 62.94942 0 0-78.684006 78.688034 0 0-62.954456L787.800931 454.63189 787.800931 454.632898zM724.847482 800.860249 929.437379 800.860249l0-204.589897L724.847482 596.270352 724.847482 800.860249 724.847482 800.860249zM724.847482 297.256829l62.953449 0 0-62.948413-62.953449 0L724.847482 297.256829 724.847482 297.256829zM866.488965 155.619374l-78.688034 0 0-62.952442 80.752808 0 60.883639 0L929.437379 166.461956l0 67.84646 78.688034 0 0 62.948413-67.625882 0-74.010566 0 0-58.85311L866.488965 155.619374zM425.833958 737.911836l78.688034 0 0-78.688034L425.833958 659.223802 425.833958 737.911836 425.833958 737.911836zM221.244062 375.944863l62.953449 0 0-78.688034-62.953449 0L221.244062 375.944863 221.244062 375.944863zM425.833958 454.632898l-60.883639 0-80.752808 0 0-78.688034 78.688034 0 0-78.688034 62.948413 0 0 85.034445L425.833958 454.632898zM362.885545 13.977891 362.885545 155.619374l62.948413 0 0 78.689042-60.883639 0L142.554013 234.308416l0 76.036059 0 65.600389L77.180246 375.944863 0.918573 375.944863l0-78.688034L79.606607 297.256829l0-62.948413L0.918573 234.308416l0-361.966973 361.966973 0 0 78.688034 62.948413 0 0 62.948413L362.885545 13.977891 362.885545 13.977891zM284.197511-48.970522 79.606607-48.970522 79.606607 155.619374l204.591911 0L284.198518-48.970522 284.197511-48.970522zM425.833958 297.256829l78.688034 0 0-62.948413L425.833958 234.308416 425.833958 297.256829 425.833958 297.256829zM646.159448 375.944863l78.688034 0 0-78.688034-78.688034 0L646.159448 375.944863 646.159448 375.944863zM787.800931 375.944863l78.681991 0 0-78.688034-78.681991 0L787.800931 375.944863 787.800931 375.944863zM787.800931 375.944863"  horiz-adv-x="1024" />

    
    <glyph glyph-name="faxian1" unicode="&#58886;" d="M511.978511 383.998977m-168.144558 0a164.315 164.315 0 1 0 336.289116 0 164.315 164.315 0 1 0-336.289116 0ZM511.978511 39.922501c-224.472448 0-420.778392 86.449931-500.112252 220.243123-8.03807 13.553691-3.565199 31.05632 9.989515 39.093367 13.551644 8.043187 31.055297 3.566222 39.095413-9.989515C129.147382 174.261115 310.402539 96.987171 511.978511 96.987171s382.831128 77.273944 451.027323 192.282305c8.036024 13.555737 25.538653 18.027585 39.095413 9.989515 13.554714-8.036024 18.026562-25.539676 9.989515-39.093367C932.75588 126.372431 736.449935 39.922501 511.978511 39.922501zM995.115136 451.029626c-10.387581 0-20.400632 5.691629-25.442462 15.57779-61.363579 120.351042-249.574149 204.405413-457.695187 204.405413S115.64588 586.958458 54.282301 466.607416c-7.15598-14.038738-24.335245-19.62292-38.379099-12.45773-14.038738 7.15598-19.617803 24.341385-12.458753 38.380122 71.834049 140.886751 276.197506 235.547691 508.533039 235.547691s436.69899-94.66094 508.533039-235.547691c7.15905-14.038738 1.579985-31.224142-12.458753-38.380122C1003.902266 452.032466 999.475444 451.029626 995.115136 451.029626z"  horiz-adv-x="1040" />

    
    <glyph glyph-name="gouwuche" unicode="&#58887;" d="M951.269535 341.856158l0.636496 1.704828 66.019623 255.31592c10.598382 30.156834 6.28003 63.398936-11.69946 89.314165-16.460904 23.727401-41.726334 37.33635-69.312622 37.33635L245.052159 725.52742l-15.096836 54.286394-0.582261 1.885953c-13.422707 39.440267-50.091862 65.936735-91.24719 65.936735L35.087123 847.636502c-19.198248 0-34.761712-15.562441-34.761712-34.761712 0-19.199271 15.562441-34.761712 34.761712-34.761712l103.038748 0c11.126408 0 21.143553-7.223518 25.165146-18.061354l186.413644-670.329005-123.257232 0c-2.208295 0.171915-4.432962 0.286526-6.685259 0.286526-46.845934 0-84.822874-37.975916-84.822874-84.822874s37.97694-84.822874 84.822874-84.822874c46.845934 0 84.822874 37.975916 84.822874 84.822874 0 5.125741-0.479931 10.136871-1.351787 15.011902l520.625448 0c-0.870834-4.875031-1.351787-9.886161-1.351787-15.011902 0-46.845934 37.975916-84.822874 84.822874-84.822874s84.822874 37.975916 84.822874 84.822874-37.975916 84.822874-84.822874 84.822874c-2.252297 0-4.476965-0.11461-6.685259-0.286526L421.865143 89.72272l-23.191188 83.391269 489.568105 112.192222C916.818909 291.566798 940.369278 312.690908 951.269535 341.856158zM873.322256 353.207693 380.028293 240.164081 264.386506 656.003997l672.527067 0c5.808286 0 9.833973-4.048199 12.190647-7.442506 4.14439-5.975085 7.115048-16.266475 3.01466-27.232225l-0.636496-1.705851-65.880453-254.778684C882.924961 358.691591 878.310873 354.285235 873.322256 353.207693zM813.04952 570.456622 435.524235 570.456622c-19.198248 0-34.761712-15.563464-34.761712-34.761712s15.562441-34.761712 34.761712-34.761712l377.525286 0c19.198248 0 34.761712 15.562441 34.761712 34.761712S832.248791 570.456622 813.04952 570.456622zM645.753283 445.190641 510.808872 445.190641c-19.198248 0-34.761712-15.562441-34.761712-34.761712 0-19.199271 15.562441-34.761712 34.761712-34.761712l134.944412 0c19.198248 0 34.761712 15.562441 34.761712 34.761712C680.513972 429.627177 664.951531 445.190641 645.753283 445.190641z"  horiz-adv-x="1040" />

    
    <glyph glyph-name="gouwuchekong" unicode="&#58888;" d="M504.521985 135.291177 270.292783 135.291177c-16.379214 0-29.707595 13.147084-29.707595 29.305719L240.585188 434.098518c0 8.038526 2.686223 16.016619 7.563124 22.4698L342.980957 576.327343c5.459066 7.223695 14.360769 11.628214 23.691543 11.628214l137.849485 0 0-16.787133L366.6725 571.168424c-4.10135 0-7.994209-1.912688-10.415536-5.114601L261.424318 446.294797c-2.609675-3.453716-4.051997-7.726291-4.051997-12.19628l0-269.501621c0-6.901388 5.795474-12.519593 12.920462-12.519593l234.228196 0L504.520978 135.291177zM738.750181 135.291177 504.521985 135.291177l0 16.787133 234.228196 0c7.122974 0 12.918448 5.617198 12.918448 12.519593L751.668629 434.098518c0 4.475024-1.440307 8.743571-4.166819 12.349375L652.902836 565.900727c-2.538164 3.355009-6.434044 5.267697-10.535394 5.267697l-137.846464 0 0 16.787133 137.846464 0c9.330773 0 18.229455-4.40452 23.808379-11.776274l94.600988-119.458878c4.991722-6.60124 7.677945-14.584369 7.677945-22.622895l0-269.501621C768.454754 148.438261 755.129395 135.291177 738.750181 135.291177zM504.521985 343.470964 428.491895 343.470964 428.491895 430.48667 248.979258 430.48667 248.979258 447.272796 445.279028 447.272796 445.279028 360.25709 504.521985 360.25709ZM580.548047 343.470964 504.521985 343.470964 504.521985 360.25709 563.761921 360.25709 563.761921 447.272796 760.060684 447.272796 760.060684 430.48667 580.548047 430.48667ZM504.521985 636.786c-4.636178 0-8.393063 3.759907-8.393063 8.393063l0 82.070316c0 4.634163 3.756885 8.393063 8.393063 8.393063 4.636178 0 8.393063-3.759907 8.393063-8.393063l0-82.070316C512.915048 640.545907 509.158163 636.786 504.521985 636.786zM413.35759 636.786c-2.147367 0-4.294734 0.819867-5.934469 2.458594l-43.830663 43.835699c-3.278461 3.278461-3.278461 8.590476 0 11.868937 3.278461 3.278461 8.590476 3.278461 11.868937 0l43.830663-43.835699c3.278461-3.278461 3.278461-8.590476 0-11.868937C417.653332 637.605867 415.505965 636.786 413.35759 636.786zM595.682352 636.786c-2.147367 0-4.294734 0.819867-5.934469 2.458594-3.278461 3.278461-3.278461 8.590476 0 11.868937l43.832678 43.835699c3.278461 3.278461 8.590476 3.278461 11.868937 0s3.278461-8.590476 0-11.868937l-43.832678-43.835699C599.977086 637.605867 597.829719 636.786 595.682352 636.786zM504.521985-127.658557c-277.687199 0-503.603916 225.916717-503.603916 503.603916s225.916717 503.603916 503.603916 503.603916 503.603916-225.916717 503.603916-503.603916S782.208177-127.658557 504.521985-127.658557zM504.521985 857.167102c-265.345881 0-481.221743-215.87284-481.221743-481.221743s215.875862-481.221743 481.221743-481.221743 481.221743 215.87284 481.221743 481.221743S769.86686 857.167102 504.521985 857.167102z"  horiz-adv-x="1024" />

    
    <glyph glyph-name="gukeguanli" unicode="&#58889;" d="M512.76134 374.769778c-30.144554 0-60.807924 6.099928-88.674599 17.639752-27.860535 11.539824-53.856605 28.907377-75.179236 50.227961-21.325701 21.333888-38.694277 47.328935-50.233078 75.18026-11.537777 27.855418-17.636682 58.519812-17.636682 88.677669 0 30.15274 6.098905 60.816111 17.634636 88.674599 11.544941 27.862581 28.913517 53.857629 50.234101 75.179236 21.321608 21.323655 47.318702 38.693254 75.17719 50.233078 27.860535 11.537777 58.523905 17.636682 88.676645 17.636682 30.15274 0 60.816111-6.098905 88.674599-17.636682 27.857465-11.537777 53.853535-28.909423 75.179236-50.233078 21.318538-21.317515 38.690184-47.311539 50.231031-75.17719 11.537777-27.860535 17.636682-58.523905 17.636682-88.676645 0-30.157857-6.098905-60.822251-17.636682-88.676645-11.536754-27.857465-28.907377-53.855582-50.231031-75.181283-21.325701-21.323655-47.321772-38.691207-75.181283-50.228985C573.569264 380.87073 542.905894 374.769778 512.76134 374.769778zM512.76134 771.013381c-21.407566 0-43.178405-4.329609-62.959937-12.522198-19.776416-8.190543-38.231743-20.523429-53.369511-35.662221-15.139815-15.139815-27.471678-33.595142-35.665291-53.376675-8.190543-19.776416-12.521175-41.546232-12.521175-62.954821 0-21.412682 4.329609-43.182498 12.521175-62.956867 8.190543-19.776416 20.526499-38.234813 35.667338-53.380768 15.132652-15.132652 33.589003-27.463492 53.368488-35.654035 19.787672-8.195659 41.559535-12.527314 62.959937-12.527314s43.171242 4.331655 62.956867 12.525268c19.779486 8.192589 38.236859 20.523429 53.374628 35.659151 15.137769 15.139815 27.469632 33.597189 35.662221 53.376675 8.190543 19.776416 12.521175 41.546232 12.521175 62.958914 0 21.407566-4.329609 43.178405-12.522198 62.959937-8.192589 19.779486-20.524452 38.234813-35.659151 53.368488-15.142885 15.142885-33.600259 27.474748-53.376675 35.667338C555.940768 766.682749 534.170952 771.013381 512.76134 771.013381zM512.76134-70.219016c-153.12447 0-258.397095 18.188244-321.836963 55.603389-59.370179 35.016515-69.762877 79.249949-72.41631 109.475344-5.710049 65.034179 30.229488 148.909471 68.681242 198.148919 38.891775 49.811476 91.983971 77.243245 149.491733 77.243245 35.32453 0 58.257845-11.793604 78.490655-22.199605 23.675212-12.174274 46.035476-23.675212 97.588619-23.675212 53.020564 0 75.954903 12.035104 98.134041 23.673166 19.831674 10.406001 42.309618 22.201651 77.886905 22.201651 51.315736 0 94.634334-19.515473 136.322805-61.414745 55.978942-56.267515 84.891436-151.732773 80.503499-211.520461-1.541099-20.992103-5.152347-70.146617-66.858734-109.00053C776.196171-51.072957 669.564595-70.219016 512.76134-70.219016zM336.683089 303.0442c-46.606481 0-78.213339-27.950586-96.522334-51.399647-33.682124-43.13338-58.219983-110.830201-54.700833-150.911058 1.52575-17.400299 5.970992-37.622876 39.607066-57.461713 35.802414-21.1149 114.77607-46.285163 287.695375-46.285163 176.568415 0 255.256568 26.211988 290.177915 48.199769 32.978089 20.763906 34.519188 41.736567 35.642778 57.050344 2.800789 38.169321-16.882506 114.730021-61.121056 159.198815-29.016871 29.16525-55.538921 41.608653-88.679715 41.608653-19.015076 0-29.41903-5.460362-46.657646-14.506389-26.634614-13.974269-59.780525-31.368428-129.3633-31.368428-67.821665 0-101.369735 17.252943-128.325667 31.115672C367.155101 297.172469 355.73705 303.0442 336.683089 303.0442zM987.515041 143.28973c-1.647523 0-3.312442 0.121773-4.991688 0.370437-18.355043 2.733251-31.020504 19.828604-28.288277 38.185694 14.699794 98.734722-46.49801 224.02117-157.815305 245.942435-11.214413 2.208295-20.537755 9.965979-24.747637 20.591991-4.209882 10.626012-2.730181 22.664186 3.928472 31.954783 39.654138 55.326073 50.127677 107.850333 31.128975 156.11457-14.716166 37.383422-42.277896 59.416228-42.554188 59.634192l0.162706-0.124843 40.948621 53.289694c4.122901-3.168156 40.924061-32.475646 62.5895-84.745103 17.60189-42.468231 27.523867-106.726743-13.465686-184.429453 49.074695-20.415982 91.660606-57.384965 122.709763-107.262956 37.692461-60.550051 53.579289-133.76147 43.590797-200.861704C1018.226506 155.272645 1003.882823 143.291776 987.515041 143.28973zM36.44198 143.28973c-16.369829 0-30.710442 11.980869-33.19503 28.659737-9.989515 67.100234 5.898337 140.311653 43.592844 200.861704 31.048133 49.877991 73.635067 86.846974 122.709763 107.262956-40.990576 77.70271-31.069623 141.960199-13.467733 184.429453 21.664416 52.268434 58.464553 81.5749 62.5895 84.745103l40.950667-53.289694 0.160659 0.124843c-0.275269-0.217964-27.838022-22.25077-42.554188-59.634192-18.996656-48.263214-8.524141-100.788497 31.131021-156.11457 6.658653-9.290597 8.138354-21.328771 3.928472-31.954783-4.209882-10.626012-13.533224-18.383696-24.747637-20.591991C116.219955 405.868053 55.022151 280.580582 69.721945 181.846884c2.732228-18.35709-9.933233-35.452443-28.288277-38.185694C39.756469 143.411503 38.089503 143.28973 36.44198 143.28973zM239.428068 722.236468m-33.892925 0a33.121 33.121 0 1 0 67.785849 0 33.121 33.121 0 1 0-67.785849 0ZM783.800359 722.236468m-33.892925 0a33.121 33.121 0 1 0 67.785849 0 33.121 33.121 0 1 0-67.785849 0Z"  horiz-adv-x="1040" />

    
    <glyph glyph-name="guanyu" unicode="&#58890;" d="M504.521985 826.537912c248.458028 0 450.592553-202.134525 450.592553-450.592553S752.979006-74.647194 504.521985-74.647194 53.928425 127.487331 53.928425 375.945359 256.063958 826.537912 504.521985 826.537912M504.521985 879.549274c-278.132385 0-503.603916-225.471531-503.603916-503.603916s225.471531-503.603916 503.603916-503.603916 503.603916 225.471531 503.603916 503.603916S782.65437 879.549274 504.521985 879.549274L504.521985 879.549274zM504.515942 209.968588c-14.637751 0-26.505681 11.854836-26.505681 26.505681L478.010261 685.539895c0 14.650845 11.86793 26.505681 26.505681 26.505681 14.637751 0 26.505681-11.854836 26.505681-26.505681l0-449.065626C531.020616 221.823424 519.152686 209.968588 504.515942 209.968588zM504.521985 75.407636m-53.011363 0a52.632 52.632 0 1 0 106.022725 0 52.632 52.632 0 1 0-106.022725 0Z"  horiz-adv-x="1024" />

    
    <glyph glyph-name="guozhenlogo" unicode="&#58891;" d="M523.587919 618.154971c0 0 62.293765 51.5337 140.42524 72.553433 69.409836 19.158339 147.347906 22.481014 217.939661 8.018627 84.073814-17.110703 141.677766-43.801599 141.677766-43.801599S941.089685 610.422869 805.590642 642.411421C643.185808 680.341289 523.587919 618.154971 523.587919 618.154971zM919.40378 521.359414c-67.270103 93.859691-179.128727 112.731504-282.296411 104.721063-97.189529-8.4126-168.153768-40.48711-168.153768-40.48711s233.576803 50.559513 302.608016-91.998297c42.928718-89.378633-12.822027-165.425633-67.270103-201.036689-87.509053-56.043411-196.919928-46.436612-223.818555 14.763239-15.542998 35.797297 2.927679 81.259722 50.55235 108.62293 39.792285 23.181979 79.692017 19.959587 79.692017 19.959587s-90.452081 36.270065-183.245488 7.718799c-45.254693-13.789051-89.049129-42.927695-112.245434-95.134731-40.744983-93.859691 25.809829-227.812519 212.971509-218.835054 140.7967 6.859221 203.370851 71.007217 203.370851 71.007217s-78.323856-145.407718-277.1983-138.864698c-133.952828 4.009314-223.224014 89.464591-254.110465 177.096441-31.881105 90.623997-15.957437 185.271634 12.20395 250.008031 36.759205 84.667332 100.707656 127.595027 100.707656 127.595027s-59.923788-24.156166-111.944582-86.543052c-30.885428-37.830607-57.687864-87.488587-70.108754-151.250796-30.213116-153.11219 61.896722-288.052508 61.896722-288.052508s-96.312556 85.154425-99.343589 236.518808c-2.828418 160.456459 87.620593 292.556079 206.212572 365.403201 129.449257 79.183434 265.757736 61.198827 265.757736 61.198827s-122.419144 39.792285-254.324336-8.691963c-151.35415-55.342446-208.944799-175.906336-208.944799-175.906336s56.026014 135.413086 199.378933 212.964346c77.236082 41.453111 161.022347 54.855352 229.272777 55.242162 151.071717 0.38681 256.171404-67.671239 256.171404-67.671239s-33.434483 24.556279-43.808762 30.707372C707.413622 823.294095 612.264565 873.74616 492.788449 872.472144 365.686656 871.297388 217.35433 828.184475 103.057167 684.257481 44.103474 610.136344 3.524267 507.770931 0.499373 396.985756c-3.328815-125.060297 40.97318-259.514545 148.22181-363.540783 79.687924-77.522608 203.577558-148.70174 375.268896-136.587841 107.741863 7.732102 190.268438 46.937009 256.465093 95.534843C979.521996 138.172175 1007.501234 398.646582 919.40378 521.359414zM954.127629 794.863578l6.973832 0c5.820566 0 10.087753-0.958838 12.780071-2.907213 2.698458-1.933025 4.045129-4.953825 4.045129-9.099239 0-4.245697-1.589195-7.40976-4.711302-9.500375-3.13541-2.090615-7.91118-3.106758-14.310937-3.106758l-4.77577 0L954.128653 794.863578zM954.127629 769.189849l21.234627-29.661553 11.612479 0-18.120706 24.477484c5.334495 0.273223 9.665127 2.14792 13.044084 5.662977 3.38612 3.500731 5.076622 7.868201 5.076622 13.108552 0 6.701632-2.033309 11.848862-6.056949 15.399735-4.045129 3.543709-9.907651 5.333472-17.569144 5.333472l-18.556635 0 0-63.983243 9.335622 0L954.127629 769.189849zM964.100772 823.014732c-28.830629 0-52.207036-23.36822-52.207036-52.192709 0-28.844955 23.375383-52.207036 52.207036-52.207036 28.837792 0 52.198849 23.362081 52.198849 52.207036C1016.299621 799.646512 992.938564 823.014732 964.100772 823.014732zM964.100772 727.69376c-23.819498 0-43.128263 19.308765-43.128263 43.122123 0 23.819498 19.308765 43.128263 43.128263 43.128263 23.812335 0 43.1211-19.308765 43.1211-43.128263C1007.221872 747.002524 987.913107 727.69376 964.100772 727.69376z"  horiz-adv-x="1040" />

    
    <glyph glyph-name="huidaodingbu" unicode="&#58892;" d="M860.623336 732.047716C765.50565 827.165402 639.039627 879.549274 504.521985 879.549274S243.538321 827.165402 148.420635 732.047716C53.301942 636.929023 0.91807 510.463001 0.91807 375.945359c0-134.517642 52.383872-260.983664 147.502565-356.10135 95.117686-95.118693 221.584716-147.502565 356.10135-147.502565s260.982657 52.383872 356.10135 147.502565 147.502565 221.584716 147.502565 356.10135C1008.125901 510.463001 955.742029 636.929023 860.623336 732.047716zM504.521985-97.762614c-261.203236 0-473.707973 212.504737-473.707973 473.707973 0 261.203236 212.504737 473.707973 473.707973 473.707973 261.202228 0 473.706965-212.504737 473.706965-473.707973C978.228951 114.742123 765.725221-97.762614 504.521985-97.762614zM527.678701 604.137358c-12.789525 12.789525-33.524913 12.789525-46.314438 0L318.465519 441.238614c-12.789525-12.789525-12.789525-33.524913 0-46.31343l0 0c12.789525-12.789525 33.524913-12.789525 46.314438 0l71.59334 71.59334c2.922917 1.846212 8.717384 4.694596 15.605678 3.780051 13.109817-1.741462 15.762803-15.008404 15.762803-15.008404l0-202.963457c0-2.767807 2.244059-5.011866 5.011866-5.011866l63.536684 0c2.767807 0 5.011866 2.244059 5.011866 5.011866L541.302194 455.288156c0 0 2.652985 13.267949 15.762803 15.008404 6.887287 0.914545 12.681754-1.932832 15.604671-3.779044l71.59334-71.59334c12.789525-12.789525 33.524913-12.789525 46.314438 0l0 0c12.789525 12.789525 12.789525 33.524913 0 46.314438L527.678701 604.137358zM536.290328 184.573857l-63.536684 0c-2.767807 0-5.011866-2.244059-5.011866-5.011866l0-73.762866c0-2.768814 2.244059-5.011866 5.011866-5.011866l63.536684 0c2.767807 0 5.011866 2.244059 5.011866 5.011866l0 73.762866C541.302194 182.329798 539.058135 184.573857 536.290328 184.573857z"  horiz-adv-x="1024" />

    
    <glyph glyph-name="koufeimingxi" unicode="&#58893;" d="M965.940512 140.243618c-10.184886 23.283623-24.213276 43.955557-41.707469 61.461836-17.494193 17.482106-38.166126 31.497403-61.44975 41.670202-8.452488 3.692424-17.268578 6.75635-26.222656 9.142425L836.560637 666.930723c0 3.189827-0.125901 6.304114-0.44015 9.369047-0.301155 3.014573-0.766485 5.977778-1.281168 8.81609-0.565044 2.964213-1.318435 5.952598-2.209814 9.017532-0.841019 2.913852-1.859306 5.777344-2.838312 8.138239-1.080734 2.762771-2.286362 5.451009-3.692424 8.212773-1.444336 2.762771-2.989393 5.451009-4.0943 7.083693-1.519877 2.511976-3.240188 4.997765-5.626263 8.012338-1.770671 2.209814-3.566523 4.294734-5.350288 6.2044-1.996286 2.1101-4.131567 4.195021-6.430015 6.178213-2.197727 1.909666-4.407541 3.667244-6.719083 5.299928-2.260174 1.632684-4.62107 3.114287-7.422115 4.772151-2.56133 1.45743-5.186113 2.788958-7.77363 3.944226-2.61169 1.155267-5.299928 2.209814-8.577382 3.315728-2.749677 0.854112-5.575903 1.632684-8.313493 2.236001-2.951119 0.628498-6.002959 1.155267-9.117245 1.456423-3.063926 0.351516-6.028139 0.477417-9.117245 0.477417l-57.607252 0c-14.254005 0-25.858047-11.604041-25.858047-25.84596 0-14.267099 11.604041-25.87114 25.858047-25.87114l57.607252 0c1.305341 0 2.524063-0.05036 3.805231-0.175254 1.143181-0.125901 2.261182-0.301155 3.478896-0.578137 1.255988-0.275975 2.486796-0.62749 3.252274-0.879292 1.193541-0.376696 2.360895-0.828932 3.553429-1.356709 1.105914-0.502597 2.147367-1.005193 2.875578-1.431242 1.155267-0.677851 2.273268-1.356709 3.403355-2.185641 1.005193-0.703031 1.984199-1.481603 2.851405-2.260174 0.929653-0.778572 1.807938-1.657864 2.750685-2.612697 0.891379-0.953826 1.695131-1.933839 2.423342-2.838312 0.665764-0.854112 1.293255-1.733405 2.372982-3.465802 0.628498-0.928646 1.205628-1.959019 1.770671-3.063926 0.539863-1.079727 1.104907-2.209814 1.720311-3.842498 0.502597-1.180448 0.891379-2.386075 1.205628-3.365081 0.388782-1.306349 0.728211-2.663058 0.9921-4.11948 0.275975-1.431242 0.502597-2.863492 0.640584-4.320922 0.137987-1.406062 0.188348-2.813131 0.188348-4.269554l0-408.23342c-25.582072-0.401876-49.896069-5.550722-72.3004-15.372006-23.296717-10.172799-43.967643-24.213276-61.42457-41.694375-17.507287-17.507287-31.535677-38.178213-41.707469-61.437663-10.197979-23.333984-15.372006-48.451733-15.372006-74.699569 0-26.800793 5.174027-52.194517 15.372006-75.528501 2.372982-5.400648 5.061219-10.87583 8.025432-16.276479L131.703503-26.258915c-1.104907 0-2.234994 0.02518-3.766957 0.201442-1.269082 0.150074-2.511976 0.376696-3.240188 0.52677-1.130087 0.251802-2.310535 0.527777-4.06912 1.131094-0.929653 0.301155-1.896572 0.677851-2.925939 1.155267-1.029366 0.452236-2.047654 0.954833-3.441629 1.783765-0.941739 0.502597-1.871392 1.079727-2.989393 1.908659-0.916559 0.628498-1.783765 1.306349-2.838312 2.261182-0.980013 0.828932-1.846212 1.708224-2.700324 2.58651-0.841019 0.879292-1.645778 1.859306-2.562337 3.039753-0.790658 0.954833-1.456423 1.959019-2.273268 3.265368-0.665764 0.979006-1.205628 2.03456-1.683044 2.963205-0.60231 1.180448-1.167354 2.436436-1.59441 3.340908-0.464323 1.280161-0.941739 2.58651-1.481603 4.496176-0.351516 1.130087-0.615404 2.260174-0.891379 3.642064-0.238708 1.306349-0.452236 2.663058-0.603317 4.294734-0.163168 1.381889-0.238708 2.813131-0.238708 4.245381L94.403576 666.955903c0 1.456423 0.087627 2.888672 0.263888 4.546536 0.125901 1.356709 0.314249 2.712411 0.603317 4.16984 0.238708 1.205628 0.527777 2.436436 0.9921 3.968399 0.401876 1.331529 0.854112 2.63687 1.079727 3.240188 0.60231 1.481603 1.242894 2.863492 2.08492 4.521356 0.489503 0.904473 0.96692 1.833118 1.871392 3.189827 0.62749 0.929653 1.217714 1.833118 1.908659 2.68723 0.841019 1.054547 1.733405 2.1101 2.448522 2.888672 0.842026 0.879292 1.683044 1.758585 3.02666 2.888672 0.828932 0.728211 1.708224 1.406062 2.875578 2.209814 0.9921 0.728211 2.08492 1.406062 2.952126 1.908659 1.029366 0.578137 2.083913 1.131094 3.013566 1.557143 1.193541 0.477417 2.386075 0.954833 3.465802 1.306349 1.104907 0.401876 2.298448 0.703031 3.478896 0.980013 1.143181 0.225615 2.273268 0.452236 3.453716 0.57713 1.255988 0.100721 2.537157 0.176261 3.818325 0.176261l57.607252 0c14.254005 0 25.858047 11.604041 25.858047 25.87114 0 14.241919-11.604041 25.84596-25.858047 25.84596l-57.607252 0c-3.07702 0-6.127852-0.151081-9.130339-0.477417-3.063926-0.301155-6.078499-0.803752-9.004438-1.456423-2.913852-0.603317-5.814611-1.406062-8.778823-2.360895-2.800038-0.929653-5.500362-1.984199-8.225866-3.189827-2.68723-1.180448-5.337194-2.511976-8.012338-4.043939-2.549243-1.481603-4.948412-3.063926-7.008152-4.521356-2.511976-1.758585-4.910138-3.642064-6.75635-5.274747-2.184634-1.883479-4.244374-3.918038-6.630449-6.329294-1.858298-2.00938-3.65415-4.11948-5.437915-6.329294-1.833118-2.310535-3.516163-4.72179-4.948412-6.957792-1.669951-2.511976-3.1022-5.074313-4.709704-8.138239-1.193541-2.386075-2.323628-4.872871-3.65415-8.087879-1.09282-2.762771-2.072834-5.550722-2.68723-7.862264-0.9921-3.189827-1.783765-6.354474-2.286362-9.142425-0.590224-3.063926-1.029366-6.12886-1.293255-8.967171-0.301155-3.063926-0.489503-6.2044-0.489503-9.369047l0-652.398728c0-3.164647 0.188348-6.329294 0.464323-9.092065 0.289069-3.189827 0.753391-6.253753 1.293255-8.967171 0.590224-3.240188 1.368795-6.354474 2.122187-8.84127 0.816846-2.888672 1.783765-5.676623 3.139467-9.142425 1.104907-2.587517 2.222908-5.099493 3.579617-7.711183 1.406062-2.68723 2.825218-5.299928 4.345095-7.660823 1.61959-2.511976 3.290548-4.898052 5.010859-7.058512 1.821032-2.285355 3.692424-4.521356 5.68871-6.581096 2.03456-2.160461 4.106386-4.143653 6.090586-5.826697 2.248088-1.959019 4.622077-3.892858 6.882251-5.451009 2.449529-1.758585 5.010859-3.391269 7.220673-4.62107 2.599603-1.50779 5.287841-2.863492 7.899531-4.043939 2.900759-1.306349 5.814611-2.436436 8.099965-3.114287 2.813131-0.954833 5.777344-1.783765 9.3066-2.58651 2.888672-0.552957 5.801517-1.029366 8.212773-1.281168 2.875578-0.376696 5.940512-0.552957 9.670202-0.552957l526.272135 0c15.974316-14.467533 34.335715-26.172295 54.592679-34.762771 23.321897-9.920997 48.740801-14.94495 75.528501-14.94495 26.222656 0 51.340405 5.023953 74.649208 14.94495 23.296717 9.896824 43.980737 23.78622 61.47493 41.268326 17.469013 17.481099 31.496396 38.153033 41.707469 61.461836 10.197979 23.308804 15.372006 48.702527 15.372006 75.528501C981.31151 91.791886 976.137484 116.909635 965.940512 140.243618zM734.595952 159.885178c0 8.79091 2.951119 16.075037 9.004438 22.32879 6.065406 6.22958 13.261906 9.243146 22.002455 9.243146 8.76573 0 16.06295-3.039753 22.304617-9.293507 6.241667-6.22958 9.28142-13.513707 9.28142-22.279437l0-106.498127 72.237953 0c8.74055 0 15.93705-3.013566 21.990369-9.217966 6.078499-6.253753 9.029618-13.563061 9.029618-22.32879 0-8.766737-2.951119-15.974316-9.004438-22.053823-6.053319-6.053319-13.248812-8.992352-22.014542-8.992352l-103.822983 0c-8.76573 0-15.96223 2.939032-22.027635 8.992352-6.041233 6.078499-8.980265 13.287086-8.980265 22.053823L734.596959 159.885178zM295.543987 640.055396l0.063454 0 1.281168 0.05036c4.257468 0.125901 29.575651 0.175254 75.226338 0.175254 62.768185 0 147.992068-0.125901 188.996506-0.175254l23.635139 0c15.497907 0 31.309055 7.861257 41.268326 20.520852 9.934091 12.609235 13.248812 28.45765 9.318687 44.658588L623.966259 752.103239c-4.445815 18.260678-25.556892 45.43716-65.530956 45.43716l-19.429039-0.02518-8.113059 0.02518c-2.989393 11.403607-7.874351 29.689465-10.122439 38.078499-5.513456 21.047622-30.856819 43.804476-62.177961 43.880016l-14.341632 0.05036-23.912121-0.05036c-30.606024 0-55.873847-22.580592-61.738818-43.528501-2.461616-8.891631-7.711183-30.140694-9.745743-38.430015l-8.477668 0.05036-25.82078-0.05036c-27.038494 0-53.901734-24.438891-58.962954-45.46234-2.00938-8.338674-5.476189-22.229077-9.469768-38.203393l-2.083913-8.389034c-4.006673-15.899783-0.716125-31.697838 9.255233-44.483334C263.356646 648.092915 279.54449 640.055396 295.543987 640.055396zM573.794215 739.444651l11.314973-46.316452c0.075541-0.376696 0.112807-0.62749 0.163168-0.728211-0.338422-0.301155-0.803752-0.60231-0.502597-0.628498l-33.493689 0.02518c-43.42778 0.05036-119.785213 0.150074-177.906141 0.150074-46.693148 0-72.815083-0.05036-77.662774-0.176261-0.351516 0.100721-1.155267 0.477417-1.481603 1.131094l2.900759 11.578861c3.67933 14.793869 6.843977 27.529004 8.200686 33.707217 1.306349 2.787951 7.672909 7.435208 9.305593 7.610462l25.745239 0.05036 14.857323-0.05036c20.73438 0 37.236474 12.584055 42.021718 32.049353l3.201914 12.86003c2.675144 10.801297 6.115766 24.665513 7.635643 30.342136 0.628498 1.356709 5.902238 6.68081 12.257719 6.68081l23.911114 0.05036 14.154292-0.02518c6.618363-0.02518 12.005917-5.022945 12.395707-5.425829 2.813131-10.499134 9.582575-36.042932 11.830663-44.784489 4.898052-18.686727 21.538132-31.748198 40.463567-31.748198l15.874603-0.05036 19.868182 0.05036C569.411854 745.799125 572.953196 740.926254 573.794215 739.444651zM600.89717 540.94111c-4.408549 3.089106-9.658116 4.746971-15.171572 4.746971-8.854364 0-17.230304-4.14466-22.492965-11.176985L440.472129 356.554594c-0.201442-0.351516-0.879292-0.854112-0.803752-0.928646-0.314249 0.05036-0.941739 0.52677-1.306349 1.155267L315.676057 534.611816c-5.148846 6.831891-13.688962 11.077272-22.304617 11.077272-5.476189 0-10.587769-1.657864-14.605521-4.697617-12.483334-8.263133-15.874603-24.413711-7.77363-37.700796l137.341853-197.673602-99.678323 0c-9.845457 0-18.812628-9.017532-18.812628-18.913349 0-10.85065 8.615656-20.018256 18.812628-20.018256l103.822983 0 0-61.789179-103.822983 0c-10.021718 0-18.812628-9.143433-18.812628-19.541846 0-10.348053 8.79091-19.414938 18.812628-19.414938l103.822983 0 0-95.647477c0-14.793869 11.881024-26.39791 27.051588-26.39791 15.096031 0 26.925687 11.604041 26.925687 26.39791l-0.013094 95.647477 103.80989 0c10.411507 0 18.888168 8.715369 18.888168 19.414938 0 10.775109-8.477668 19.541846-18.888168 19.541846L466.442983 204.896289l0 61.789179 103.80989 0c10.586762 0 18.888168 8.79091 18.888168 20.018256 0 10.24834-8.652922 18.913349-18.888168 18.913349l-98.975292 0 136.701268 197.723962C616.293349 515.748828 613.179063 532.250921 600.89717 540.94111z"  horiz-adv-x="1024" />

    
    <glyph glyph-name="qitashouru" unicode="&#58894;" d="M645.865978 463.29848c-10.420572 8.966164-26.071575 7.756508-34.993422-2.615719l-92.94816-108.216424-26.289132 0L396.911397 462.718328c-8.915804 10.420572-24.616159 11.630229-34.988386 2.664065-10.420572-8.916811-11.580876-24.618174-2.664065-34.989393l66.924932-77.926663-74.726763 0c-11.752101 0-21.27928-11.09943-21.27928-24.812565 0-13.720185 9.527179-24.814579 21.27928-24.814579l130.701331 0 0-92.128293-130.70536 0c-11.748072 0-21.275251-11.09943-21.275251-24.814579 0-13.714142 9.527179-24.814579 21.275251-24.814579l130.70536 0 0-143.259199c0-11.729942 11.09943-21.275251 24.809543-21.275251 13.719178 0 24.812565 9.546316 24.812565 21.275251L531.780555 161.082748l130.70536 0c11.753108 0 21.275251 11.100438 21.275251 24.814579 0 13.715149-9.522143 24.814579-21.275251 24.814579L531.785591 210.711907 531.785591 302.838186l130.700324 0c11.753108 0 21.280287 11.09943 21.280287 24.814579 0 13.714142-9.527179 24.812565-21.280287 24.812565L583.325423 352.46533l65.180448 75.84275C657.422681 438.729659 656.238205 454.381669 645.865978 463.29848L645.865978 463.29848zM645.865978 463.29848M400.450726 691.173208c-27.842246 24.809543-63.342293 64.79368-91.449435 102.544836 32.011079-8.578389 79.888704-19.481414 121.689843-19.481414 32.275975 0 62.879985 4.315886 90.962954 12.893267 105.381134 32.035252 184.768248 49.623115 242.559819 36.587832-34.069812-42.648201-100.370275-98.184634-144.375185-132.544522l81.710743 0c48.654181 41.095087 105.213937 94.310912 125.372195 134.580089l11.846779 23.697586L814.731422 860.550313c-27.596487 12.795568-58.417047 18.998961-94.23235 18.998961-59.272166 0-128.330364-17.302823-213.773819-43.277706-23.260458-7.078657-48.821378-10.662302-76.034119-10.662302-89.369551 0-205.146077 27.188568-205.146077 27.188568s28.156495-76.865066 104.583425-161.624626L400.450726 691.173208 400.450726 691.173208zM400.450726 691.173208M701.692487 610.530106l-89.123792 0c9.063863-6.783545 20.501715-14.782789 35.140474-24.907242 98.135281-67.998615 280.768248-194.484782 270.952-384.26691-12.790532-247.017721-242.363413-276.771647-413.917094-277.645903L497.813478-76.28995c-155.037487 0-261.31705 31.841868-324.944383 97.460451-47.543231 48.992603-70.321236 118.298574-67.657172 205.917598 6.203393 205.338453 207.521073 323.833433 293.444966 374.424475 5.721948 3.392276 10.662302 6.302099 15.21891 9.016525l-99.009537 0C210.232476 543.313084 59.708287 422.104687 53.844323 228.638192 50.742123 126.574801 78.412137 44.771395 136.012338-14.594441c73.78301-76.088508 192.130937-113.064115 361.802147-113.064115l7.17132 0c110.856316 0.580152 448.187341 2.325643 464.955337 326.350445C980.381858 400.294608 806.275912 536.863933 701.692487 610.530106L701.692487 610.530106zM701.692487 610.530106"  horiz-adv-x="1024" />

    
    <glyph glyph-name="qingchu" unicode="&#58895;" d="M580.458481 375.944987 992.463591 787.951104c20.882425 20.882425 20.882425 55.053939 0 75.936364l0 0c-20.882425 20.882425-55.053939 20.882425-75.936364 0L504.522117 451.881351 92.517007 863.887468c-20.882425 20.882425-55.053939 20.882425-75.936364 0l0 0c-20.882425-20.882425-20.882425-55.053939 0-75.936364l412.00511-412.00511L16.580643-36.060123c-20.882425-20.882425-20.882425-55.053939 0-75.936364l0 0c20.882425-20.882425 55.053939-20.882425 75.936364 0l412.00511 412.006117 412.00511-412.006117c20.882425-20.882425 55.053939-20.882425 75.936364 0l0 0c20.882425 20.882425 20.882425 55.053939 0 75.936364L580.458481 375.944987z"  horiz-adv-x="1024" />

    
    <glyph glyph-name="shenbaoriqi" unicode="&#58896;" d="M968.410185-93.231186c0-8.827169-3.346952-17.633187-10.084165-24.348242-6.737213-6.711026-15.542224-10.078122-24.348242-10.078122L89.993012-127.657549c-8.805011 0-17.604986 3.368103-24.32004 10.078122-6.737213 6.715055-10.084165 15.521073-10.084165 24.348242L55.588807 740.932297c0 8.83422 3.346952 17.633187 10.084165 24.348242 6.715055 6.711026 15.515029 10.084165 24.32004 10.084165l106.012653 0 0-34.72349c0-57.566964 47.165528-104.211765 105.325737-104.211765 58.182368 0 105.319694 46.644802 105.319694 104.211765L406.651097 775.364704l210.673633 0 0-34.72349c0-57.566964 47.139341-104.211765 105.319694-104.211765 58.160209 0 105.298543 46.644802 105.298543 104.211765L827.942967 775.364704l106.03884 0c8.799975 0 17.604986-3.373139 24.342199-10.084165 6.737213-6.715055 10.084165-15.514022 10.084165-24.348242L968.408171-93.231186 968.410185-93.231186 968.410185-93.231186zM898.201756 532.239841 125.796229 532.239841l0-590.430267 772.40452 0L898.200749 532.239841 898.201756 532.239841 898.201756 532.239841zM301.326367 358.587139 196.005666 358.587139l0 104.185578 105.319694 0L301.32536 358.587139 301.326367 358.587139zM301.326367 184.928394 196.005666 184.928394 196.005666 289.119008l105.319694 0L301.32536 184.928394 301.326367 184.928394zM301.326367 11.248497 196.005666 11.248497 196.005666 115.462277l105.319694 0L301.32536 11.248497 301.326367 11.248497zM476.881685 358.587139 371.533789 358.587139l0 104.185578 105.347896 0L476.881685 358.587139 476.881685 358.587139zM476.881685 184.928394 371.533789 184.928394 371.533789 289.119008l105.347896 0L476.881685 184.928394 476.881685 184.928394zM476.881685 11.248497 371.533789 11.248497 371.533789 115.462277l105.347896 0L476.881685 11.248497 476.881685 11.248497zM652.414844 358.587139 547.089106 358.587139l0 104.185578 105.325737 0L652.414844 358.587139 652.414844 358.587139zM652.414844 184.928394 547.089106 184.928394 547.089106 289.119008l105.325737 0L652.414844 184.928394 652.414844 184.928394zM652.414844 11.248497 547.089106 11.248497 547.089106 115.462277l105.325737 0L652.414844 11.248497 652.414844 11.248497zM827.944981 358.587139 722.645431 358.587139l0 104.185578 105.298543 0L827.943974 358.587139 827.944981 358.587139zM827.944981 184.928394 722.645431 184.928394 722.645431 289.119008l105.298543 0L827.943974 184.928394 827.944981 184.928394zM827.944981 11.248497 722.645431 11.248497 722.645431 115.462277l105.298543 0L827.943974 11.248497 827.944981 11.248497zM721.537503 671.175097c-38.163105 0-69.121652 30.612068-69.121652 68.358188L652.415851 811.161877c0 37.774322 30.959554 68.387397 69.121652 68.387397 38.168141 0 69.127695-30.614082 69.127695-68.387397l0-71.629599C790.665198 701.787164 759.705644 671.175097 721.537503 671.175097L721.537503 671.175097zM300.244626 671.175097c-38.163105 0-69.121652 30.612068-69.121652 68.358188L231.122974 811.161877c0 37.774322 30.959554 68.387397 69.121652 68.387397 38.168141 0 69.127695-30.614082 69.127695-68.387397l0-71.629599C369.372321 701.787164 338.412766 671.175097 300.244626 671.175097L300.244626 671.175097zM300.244626 671.175097"  horiz-adv-x="1024" />

    
    <glyph glyph-name="shenghuoguan" unicode="&#58897;" d="M511.958044-86.057749l-17.110703 13.229303c-12.190647 9.403161-299.91979 232.773508-412.425144 409.29485C35.899628 409.529443 0.325411 472.479147 0.325411 561.641863c0 161.241334 121.033587 292.415886 269.811052 292.415886 103.97712 0 194.46604-59.778478 239.279688-157.004847l5.357008 0c46.330188 95.996354 138.294716 157.004847 239.047398 157.004847 148.777465 0 269.811052-131.174552 269.811052-292.415886 0-89.162716-35.601846-152.139026-82.137719-225.175459C829.028447 159.946085 541.259394-63.425286 529.068747-72.828446L511.958044-86.057749zM270.136463 798.078807c-117.904317 0-213.83211-106.054431-213.83211-236.436944 0-74.211189 30.395264-127.675868 73.336262-195.107653 92.059696-144.431483 318.287113-330.382593 382.316405-381.550972 64.042595 51.16838 290.297642 237.120512 382.330732 381.550972 42.955324 67.431785 73.363891 120.897488 73.363891 195.107653 0 130.381489-95.927793 236.436944-213.83211 236.436944-83.859943 0-160.380734-54.776557-194.95825-139.593292l-8.582469-17.411555c-8.719592-13.256932-21.894659-23.316032-38.321794-23.316032-16.400528 0-29.561269 10.0591-38.294165 23.316032l-0.286526 0-0.778736 1.666966c-3.034103 4.892427-5.480828 10.1952-7.284917 15.553231l-1.599428 3.444449C429.396677 746.308723 355.431082 798.078807 270.136463 798.078807z"  horiz-adv-x="1040" />

    
    <glyph glyph-name="shoucang" unicode="&#58898;" d="M797.523919-105.630527c-7.190773 0-14.393825 1.807159-20.833491 5.243421L509.316891 42.201403l-269.0272-139.381467c-18.173918-9.417487-41.361013-4.606925-54.406121 10.945283-8.399297 10.002818-11.912307 23.188118-9.621125 36.117592l53.006238 298.362318L13.552667 461.034491c-12.090363 11.912307-16.290011 29.347398-10.945283 45.459355 5.344728 16.137539 19.11536 27.616988 35.939537 29.958312l300.131615 41.793872L474.382241 849.169415c7.559163 15.093766 22.741957 24.460088 39.618323 24.460088 17.104563 0 32.376385-9.5454 39.84652-24.918529l132.471081-272.526907 299.609729-45.358047c16.799618-2.544963 30.442336-14.177907 35.583426-30.365588 5.154393-16.188704 0.751107-33.57263-11.491729-45.358047L791.796474 244.911198l49.455365-298.947649c2.125407-12.879332-1.463328-25.936719-9.862625-35.83823C822.900889-99.877499 810.555723-105.630527 797.523919-105.630527zM509.368056 95.373417c7.240915 0 14.45727-1.807159 20.859074-5.243421l257.001305-137.065725L739.693816 240.456746c-2.366907 14.381545 2.481518 28.991288 12.968359 39.122019l209.798237 202.097858-288.002366 43.601031c-14.368242 2.137687-26.789133 11.250228-33.190937 24.384363L513.898233 811.65194 383.437949 551.214373c-6.540973-13.006222-19.051915-21.991874-33.471322-24.028253L61.442374 487.021352l207.354582-204.541513c10.410094-10.283204 15.081487-24.969695 12.509918-39.325657l-50.944276-286.781562 258.629385 134.011156C495.229035 93.643006 502.291894 95.373417 509.368056 95.373417z"  horiz-adv-x="1040" />

    
    <glyph glyph-name="shouye" unicode="&#58899;" d="M1013.367849 381.518482 565.125965 802.885276c-24.980951 23.481807-64.427358 23.819498-89.804329 0.768503L10.998495 381.897106c-13.316284-12.096503-14.306844-32.697703-2.210341-46.013987 6.42841-7.078209 15.258519-10.67206 24.121374-10.67206 7.812943 0 15.653515 2.794649 21.89159 8.461719l125.199467 113.722064 0-357.068372c0-78.876442 64.170508-143.047973 143.047973-143.047973l110.572328 0 0 307.083957c0 29.611411 24.090675 53.701063 53.702086 53.701063l32.877805 0 32.877805 0c29.611411 0 53.702086-24.090675 53.702086-53.701063l0-307.083957L717.350948-52.721503c78.876442 0 143.047973 64.170508 143.047973 143.047973L860.398922 435.90209l108.34766-101.851713c13.107529-12.32163 33.723056-11.68411 46.044686 1.422396C1027.112897 348.581326 1026.476401 369.196853 1013.367849 381.518482zM795.250132 90.326471c0-42.954301-34.945907-77.899184-77.899184-77.899184l-45.423539 0L671.927409 254.362454c0 65.534576-53.3163 118.849852-118.849852 118.849852l-32.877805 0L487.321948 373.212306c-65.533552 0-118.849852-53.315276-118.849852-118.849852l0-241.935168-45.423539 0c-42.954301 0-77.899184 34.944883-77.899184 77.899184l0 412.904051c0 1.078565-0.055259 2.14485-0.158612 3.196809L519.126304 755.429451c0.388856 0.355087 0.995677 0.347924 1.378393-0.01228l274.746458-258.273275L795.251156 90.326471z"  horiz-adv-x="1040" />

    
    <glyph glyph-name="tishi" unicode="&#58900;" d="M504.521985 879.549274c-278.134399 0-503.603916-225.471531-503.603916-503.603916 0-278.134399 225.469516-503.603916 503.603916-503.603916s503.603916 225.469516 503.603916 503.603916C1008.125901 654.077744 782.655378 879.549274 504.521985 879.549274zM458.036322 631.698593c0 23.177867 20.809921 41.967329 46.485663 41.967329 25.678764 0 46.489692-18.789462 46.489692-41.967329l0-362.890938c0-23.177867-20.809921-41.967329-46.489692-41.967329-25.674735 0-46.485663 18.789462-46.485663 41.967329L458.036322 631.698593zM504.521985 78.225803c-28.695351 0-51.95883 22.765919-51.95883 50.855938 0 28.084983 23.262472 50.853923 51.95883 50.853923 28.695351 0 51.95883-22.767933 51.95883-50.853923C556.479809 100.991722 533.217337 78.225803 504.521985 78.225803z"  horiz-adv-x="1024" />

    
    <glyph glyph-name="tixing" unicode="&#58901;" d="M919.267412 149.543103c-26.008114 55.297711-65.552092 92.568421-86.808201 109.862175-2.82421 2.299455-4.444807 5.653456-4.444807 9.205877L828.014404 517.248408c0 171.647311-129.898556 237.368614-196.730809 264.914734-3.986528 32.883314-18.392618 58.14408-42.974526 75.260566-29.833489 20.775671-66.002314 22.174682-76.23655 22.123315-10.029773 0.067483-46.401047-1.243901-76.380581-22.123315-24.582916-17.116486-38.990013-42.377252-42.976541-75.260566-66.831245-27.54612-196.729802-93.26843-196.729802-264.914734l0-248.637252c0-3.552421-1.620597-6.906422-4.4438-9.203863-21.257116-17.295769-60.801094-54.565471-86.809208-109.86419-10.615968-22.570515-8.954076-48.64712 4.4438-69.755169 13.520755-21.300426 36.670414-34.016422 61.925137-34.016422l681.79695 0c25.25573 0 48.40539 12.715996 61.926144 34.017429C928.222495 100.895983 929.882373 126.973595 919.267412 149.543103zM717.432075 291.711462c0-7.289161-5.909287-13.198448-13.198448-13.198448-7.289161 0-13.198448 5.909287-13.198448 13.198448L691.035179 515.193704c0 81.114456-99.180739 116.500681-100.181903 116.848167-6.879228 2.390104-10.53237 9.900851-8.152338 16.784107 2.379024 6.881242 9.874663 10.537406 16.760942 8.168454 1.196563-0.410941 29.619961-10.33395 58.257894-32.239708 39.064547-29.883849 59.713309-67.768956 59.713309-109.56102L717.433082 291.711462zM524.528655-70.906438c-38.24468 0-69.359336 31.114657-69.359336 69.359336l-56.752119 0c0-69.537612 56.573843-126.111456 126.111456-126.111456s126.111456 56.573843 126.111456 126.111456l-56.752119 0C593.887992-39.791781 562.773335-70.906438 524.528655-70.906438z"  horiz-adv-x="1024" />

    
    <glyph glyph-name="tiyanguan" unicode="&#58902;" d="M920.856875-94.835669 595.546811-94.835669l0 213.482139c0 36.858466-29.984918 66.856687-66.843384 66.856687L494.505557 185.503157c-36.858466 0-66.843384-29.998221-66.843384-66.856687l0-213.482139L98.139158-94.835669 98.139158 322.504414 40.385802 322.504414c-16.512069 0-31.119765 9.912767-37.210483 25.251104-6.077416 15.363919-2.25639 32.581046 9.768481 43.901883L513.312902 862.835669l191.83205-193.683211L705.144952 825.534112l188.30983 0 0-321.710073 118.009717-114.697275c11.751648-11.425214 15.363919-28.589129 9.195429-43.770899-6.15621-15.155165-20.711717-24.963555-37.080523-24.963555l-62.72253 0L920.856875-94.835669zM648.969535-41.412946l218.464617 0L867.434152 373.81401l83.146699 0L840.032058 481.233532 840.032058 772.110365l-81.464383 0 0-232.81137L512.008186 788.231531 74.15286 375.927137l77.407997 0L151.560858-41.412946l222.677569 0L374.238426 118.647493c0 66.334801 53.957913 120.279411 120.266108 120.279411l34.19787 0c66.309218 0 120.266108-53.94461 120.266108-120.279411L648.968511-41.412946z"  horiz-adv-x="1040" />

    
    <glyph glyph-name="tianjia" unicode="&#58903;" d="M504.521934 879.549161c-277.692133 0-503.607383-225.91525-503.607383-503.607383 0-277.677024 225.91525-503.592275 503.607383-503.592275s503.607383 225.91525 503.607383 503.592275C1008.129317 653.632904 782.213059 879.549161 504.521934 879.549161zM504.521934-65.110517c-243.200063 0-441.067404 197.852233-441.067404 441.052295 0 243.200063 197.867341 441.066397 441.067404 441.066397 243.200063 0 441.066397-197.867341 441.066397-441.066397C945.58833 132.741715 747.72099-65.110517 504.521934-65.110517zM783.144733 407.218818 535.791924 407.218818 535.791924 658.992293c0 17.268697-14.001292 31.26999-31.26999 31.26999-17.268697 0-31.26999-14.001292-31.26999-31.26999l0-251.773475L225.898128 407.218818c-17.268697 0-31.26999-14.001292-31.26999-31.26999 0-17.268697 14.001292-31.26999 31.26999-31.26999l247.352809 0 0-251.773475c0-17.268697 14.001292-31.26999 31.26999-31.26999 17.268697 0 31.26999 14.001292 31.26999 31.26999l0 251.773475 247.352809 0c17.268697 0 31.26999 14.001292 31.26999 31.26999C814.41573 393.217526 800.41343 407.218818 783.144733 407.218818z"  horiz-adv-x="1024" />

    
    <glyph glyph-name="wode" unicode="&#58904;" d="M1008.125901 375.944352c0 134.516635-52.382865 260.983664-147.502565 356.102357C765.50565 827.164395 639.039627 879.549274 504.522993 879.549274S243.539328 827.164395 148.419628 732.047716c-95.117686-95.118693-147.501558-221.585723-147.501558-356.102357s52.384879-260.983664 147.501558-356.10135c95.118693-95.117686 221.585723-147.502565 356.102357-147.502565 117.101004 0 228.083221 39.724277 317.609896 112.758931 7.949891 6.485411 26.283088 26.025243 34.834283 41.558402 0.042303 0.073526 0.082591 0.14806 0.123887 0.222593 0.063454 0.115829 0.125901 0.231658 0.188348 0.347487 0.2236 0.405905 0.44015 0.814831 0.646627 1.229801 0.013094 0.026187 0.028202 0.053382 0.042303 0.079569l-0.001007 0.004029c4.020774 8.133203 4.793302 17.845708 1.335558 27.002235-26.287117 69.596047-73.631928 128.519719-136.916811 170.401435-25.691857 17.002675-53.361871 30.750055-82.467156 41.084007 55.671398 41.447609 91.799943 107.748072 91.799943 182.330805 0 125.274496-101.91936 227.194863-227.194863 227.194863s-227.194863-101.91936-227.194863-227.194863c0-74.629064 36.173869-140.964779 91.903686-182.407353-29.181832-10.380284-56.919329-24.195147-82.665576-41.284442-49.862831-33.096849-89.779484-76.77341-117.275251-127.907337-62.782286 75.527494-100.582796 172.522615-100.582796 278.182745 0 240.308709 195.50609 435.8148 435.8148 435.8148S940.335778 616.254068 940.335778 375.944352c0-68.784237-16.029713-133.890151-44.530673-191.798558-4.79028-5.891159-7.664852-13.402915-7.664852-21.587485 0-18.915363 15.333732-34.250102 34.250102-34.250102 13.504643 0 25.180196 7.818954 30.756098 19.174215 0.114822-0.056404 0.228636-0.112807 0.344465-0.169211C989.201473 217.256744 1008.125901 295.143118 1008.125901 375.944352zM504.522993 608.764471c87.896006 0 159.40474-71.508734 159.40474-159.40474s-71.508734-159.40474-159.40474-159.40474c-87.897013 0-159.40474 71.508734-159.40474 159.40474S416.62598 608.764471 504.522993 608.764471zM504.685153 222.164867c127.293947 0 237.340468-68.351138 284.994492-175.490856-76.482327-66.335715-176.20396-106.542444-285.156652-106.542444-108.838878 0-208.485978 40.103994-284.943124 106.309779C267.176482 153.742218 377.209908 222.164867 504.685153 222.164867z"  horiz-adv-x="1024" />

    
    <glyph glyph-name="wugouwu" unicode="&#58905;" d="M741.840798 368.630008 453.634321 368.630008c-14.656888 0-26.538919-11.881024-26.538919-26.537912 0-14.656888 11.881024-26.536905 26.538919-26.536905l288.206478 0c14.656888 0 26.537912 11.881024 26.537912 26.536905C768.37871 356.748985 756.497687 368.630008 741.840798 368.630008zM614.124831 273.000661 511.106607 273.000661c-14.655881 0-26.536905-11.881024-26.536905-26.537912 0-14.656888 11.881024-26.536905 26.536905-26.536905l103.018224 0c14.656888 0 26.537912 11.881024 26.537912 26.536905C640.662743 261.119637 628.780712 273.000661 614.124831 273.000661zM847.359919 194.114129l0.485474 1.301313 50.40068 194.911838c8.089893 23.021749 4.794309 48.399358-8.931919 68.183941-12.565925 18.113626-31.853955 28.502974-52.914671 28.502974L308.22574 487.014195l-11.525479 41.442573-0.444179 1.4393c-10.247332 30.108464-38.24066 50.337226-69.658494 50.337226l-78.662932 0c-14.655881 0-26.536905-11.881024-26.536905-26.537912 0-14.656888 11.881024-26.536905 26.536905-26.536905l78.662932 0c8.493784 0 16.140505-5.514463 19.209468-13.788675L388.118473 1.631677l-94.858834 0c-1.442322 0.095685-2.875578 0.219571-4.342073 0.219571-35.760914 0-64.753391-28.99147-64.753391-64.754399 0-35.762928 28.992477-64.754399 64.753391-64.754399 35.763936 0 64.755406 28.99147 64.755406 64.754399 0 3.918038-0.406912 7.734349-1.073684 11.460011l397.534859 0c-0.665764-3.725662-1.072676-7.542979-1.072676-11.460011 0-35.762928 28.99147-64.754399 64.754399-64.754399s64.754399 28.99147 64.754399 64.754399c0 35.762928-28.99147 64.754399-64.754399 64.754399-1.466495 0-2.900759-0.123887-4.342073-0.219571L443.206698 1.631677l-17.703692 63.662585 373.741588 85.647918C821.059709 155.722388 839.038368 171.847786 847.359919 194.114129zM787.854081 202.779138l-376.58695-86.298574-88.282774 317.4568 513.416134 0c4.434736 0 7.507727-3.090114 9.3066-5.681659 3.164647-4.560637 5.431872-12.417865 2.30147-20.789777l-0.485474-1.30232-50.293916-194.500897C795.184539 206.966101 791.662334 203.603034 787.854081 202.779138zM589.481477 738.243052c10.920147 0 19.774511 8.851342 19.774511 19.774511L609.255988 859.774763c0 10.924176-8.854364 19.774511-19.774511 19.774511s-19.774511-8.851342-19.774511-19.774511l0-101.7572C569.706965 747.093387 578.560322 738.243052 589.481477 738.243052zM762.950867 702.040981c5.059205 0 10.122439 1.930817 13.981052 5.793459l77.402915 77.399893c7.724277 7.718234 7.724277 20.237827 0.003022 27.963111-7.721255 7.718234-20.244877 7.731327-27.966133 0l-77.402915-77.399893c-7.724277-7.718234-7.724277-20.237827-0.003022-27.963111C752.828428 703.971798 757.887633 702.040981 762.950867 702.040981zM402.033049 707.83444c3.858613-3.862642 8.921847-5.793459 13.981052-5.793459 5.059205 0 10.122439 1.930817 13.984074 5.793459 7.721255 7.724277 7.721255 20.244877-0.003022 27.963111l-77.402915 77.399893c-7.718234 7.724277-20.241856 7.724277-27.966133 0-7.721255-7.724277-7.721255-20.244877 0.003022-27.963111L402.033049 707.83444z"  horiz-adv-x="1024" />

    
    <glyph glyph-name="wushenbao" unicode="&#58906;" d="M504.521985 135.291177 270.292783 135.291177c-16.379214 0-29.707595 13.147084-29.707595 29.305719L240.585188 434.098518c0 8.038526 2.686223 16.016619 7.563124 22.4698L342.980957 576.327343c5.459066 7.223695 14.360769 11.628214 23.691543 11.628214l137.849485 0 0-16.787133L366.6725 571.168424c-4.10135 0-7.994209-1.912688-10.415536-5.114601L261.424318 446.294797c-2.609675-3.453716-4.051997-7.726291-4.051997-12.19628l0-269.501621c0-6.901388 5.795474-12.519593 12.920462-12.519593l234.228196 0L504.520978 135.291177zM738.750181 135.291177 504.521985 135.291177l0 16.787133 234.228196 0c7.122974 0 12.918448 5.617198 12.918448 12.519593L751.668629 434.098518c0 4.475024-1.440307 8.743571-4.166819 12.349375L652.902836 565.900727c-2.538164 3.355009-6.434044 5.267697-10.535394 5.267697l-137.846464 0 0 16.787133 137.846464 0c9.330773 0 18.229455-4.40452 23.808379-11.776274l94.600988-119.458878c4.991722-6.60124 7.677945-14.584369 7.677945-22.622895l0-269.501621C768.454754 148.438261 755.129395 135.291177 738.750181 135.291177zM504.521985 343.470964 428.491895 343.470964 428.491895 430.48667 248.979258 430.48667 248.979258 447.272796 445.279028 447.272796 445.279028 360.25709 504.521985 360.25709ZM580.548047 343.470964 504.521985 343.470964 504.521985 360.25709 563.761921 360.25709 563.761921 447.272796 760.060684 447.272796 760.060684 430.48667 580.548047 430.48667ZM504.521985 636.786c-4.636178 0-8.393063 3.759907-8.393063 8.393063l0 82.070316c0 4.634163 3.756885 8.393063 8.393063 8.393063 4.636178 0 8.393063-3.759907 8.393063-8.393063l0-82.070316C512.915048 640.545907 509.158163 636.786 504.521985 636.786zM413.35759 636.786c-2.147367 0-4.294734 0.819867-5.934469 2.458594l-43.830663 43.835699c-3.278461 3.278461-3.278461 8.590476 0 11.868937 3.278461 3.278461 8.590476 3.278461 11.868937 0l43.830663-43.835699c3.278461-3.278461 3.278461-8.590476 0-11.868937C417.653332 637.605867 415.505965 636.786 413.35759 636.786zM595.682352 636.786c-2.147367 0-4.294734 0.819867-5.934469 2.458594-3.278461 3.278461-3.278461 8.590476 0 11.868937l43.832678 43.835699c3.278461 3.278461 8.590476 3.278461 11.868937 0s3.278461-8.590476 0-11.868937l-43.832678-43.835699C599.977086 637.605867 597.829719 636.786 595.682352 636.786zM504.521985-127.658557c-277.687199 0-503.603916 225.916717-503.603916 503.603916s225.916717 503.603916 503.603916 503.603916 503.603916-225.916717 503.603916-503.603916S782.208177-127.658557 504.521985-127.658557zM504.521985 857.167102c-265.345881 0-481.221743-215.87284-481.221743-481.221743s215.875862-481.221743 481.221743-481.221743 481.221743 215.87284 481.221743 481.221743S769.86686 857.167102 504.521985 857.167102z"  horiz-adv-x="1024" />

    
    <glyph glyph-name="xuanzhong" unicode="&#58907;" d="M525.405446 130.457841c-12.650543-12.650543-29.291647-18.986893-45.932751-18.986893-16.567578 0-33.135156 6.263832-45.773612 18.815668L209.76836 352.876744c-14.774746 14.689133-14.848272 38.564011-0.160146 53.350844 14.713306 14.76266 38.576098 14.836186 53.363938 0.147052L479.447514 191.202605l451.615313 451.592147C842.01751 784.816233 684.519259 879.550266 504.519964 879.550266c-278.131651 0-503.602396-225.471752-503.602396-503.604411s225.471752-503.604411 503.602396-503.604411c278.134673 0 503.606425 225.470745 503.606425 503.604411 0 69.961732-14.317473 136.56543-40.098998 197.111774L525.405446 130.457841z"  horiz-adv-x="1024" />

    
    <glyph glyph-name="yahuo" unicode="&#58908;" d="M36.48989 410.407194c2.106528-0.34141 4.200041-0.50861 6.266521-0.50861 18.656391 0.001001 35.095121 13.51422 38.187833 32.524035 33.906695 208.450181 212.066521 359.744764 423.62243 359.744764 174.060907 0 325.493656-102.428935 392.596192-254.830847l-110.69886-12.98158c-17.345818-4.901883-19.614541-28.563282-3.51622-36.671012l165.496628-83.351038c0.128154-0.067081 0.260312-0.130156 0.389467-0.196236l0.462555-0.23328-0.001001 0.006007c6.98238-3.448138 15.066082-4.84081 23.348022-3.502203 21.116344 3.435123 35.450548 23.33801 32.015425 44.454354C985.567969 572.232416 925.104401 679.741447 834.408548 757.587878 742.70849 836.295343 625.567899 879.642368 504.566674 879.642368c-121.001225 0-238.140815-43.347025-329.842876-122.054489C84.027945 679.741447 23.566379 572.232416 4.473464 454.862549 1.039342 433.745204 15.372545 413.842317 36.48989 410.407194zM375.794121 376.207147c0-71.119357 57.653195-128.773553 128.772552-128.773553s128.772552 57.653195 128.772552 128.773553-57.653195 128.772552-128.772552 128.772552S375.794121 447.326504 375.794121 376.207147zM972.643457 335.472257c-21.131362 3.436124-41.020232-10.899081-44.455355-32.015425-33.905693-208.450181-212.064519-359.743763-423.62243-359.743763-173.675444 0-324.819847 101.977393-392.146653 253.821636l111.884283 13.120747c17.345818 4.901883 19.614541 28.563282 3.51622 36.671012l-166.130389 83.670421c-7.386866 4.15799-16.178417 5.941131-25.199244 4.475371-21.117345-3.435123-35.450548-23.33801-32.015425-44.455355 19.091914-117.367864 79.554481-224.877897 170.250334-302.723327C266.425858-90.413889 383.565448-133.761915 504.566674-133.761915c121.001225 0 238.141817 43.347025 329.842876 122.05549 90.695853 77.84543 151.159421 185.355463 170.250334 302.723327C1008.094005 312.134247 993.759801 332.037134 972.643457 335.472257z"  horiz-adv-x="1024" />

    
    <glyph glyph-name="yewuguanli" unicode="&#58909;" d="M502.403818 764.795943m-114.754323 0a113.933 113.933 0 1 0 229.508645 0 113.933 113.933 0 1 0-229.508645 0ZM119.802453 135.247119m-114.754323 0a113.933 113.933 0 1 0 229.508645 0 113.933 113.933 0 1 0-229.508645 0ZM831.228289 666.192214c-35.475909 35.475909-75.678649 64.505682-119.182013 86.519238-1.528943-26.820964-8.114074-52.308383-18.815668-75.525553 116.528017-65.696203 196.063269-189.571808 198.900576-331.94279 26.499664-0.017123 51.862189-4.978633 75.226412-13.992145 0.026187 2.038591 0.074533 4.07416 0.074533 6.117786C967.431124 461.58177 919.05992 578.360583 831.228289 666.192214zM720.393016 14.336736c-62.263635-42.151689-137.301699-66.79406-217.988191-66.79406-78.659987 0-151.937451 23.440771-213.258338 63.671713-15.341805-20.890518-34.440498-38.858116-56.305995-52.878463 78.184585-55.854765 171.55385-85.993475 269.564333-85.993475 99.407482 0 194.035758 31.008938 272.893158 88.402718C753.88976-24.892033 735.258411-6.699827 720.393016 14.336736zM292.761359 752.711451c-43.503363-22.013556-83.705096-51.043329-119.181005-86.519238C85.748723 578.360583 37.377519 461.58177 37.377519 337.36875c0-2.985367 0.053382-5.962676 0.108779-8.938978 23.224221 9.933093 48.587754 15.789005 75.190153 16.681393 2.790976 142.425371 82.338314 266.358387 198.901584 332.074734C300.875434 700.404076 294.29131 725.890488 292.761359 752.711451zM891.995212 135.247119m-114.754323 0a113.933 113.933 0 1 0 229.508645 0 113.933 113.933 0 1 0-229.508645 0Z"  horiz-adv-x="1024" />

    
    <glyph glyph-name="yijian" unicode="&#58910;" d="M511.104603 822.56111c250.351542 0 454.025988-175.405851 454.025988-391.009047S761.455124 40.544036 511.104603 40.544036c-37.394185 0-138.847302-29.436237-226.745345-57.385083 9.095966 28.650658 12.957461 55.644346 7.539109 77.301407-5.060806 20.2279-17.353231 36.906901-34.609414 46.96109C131.923172 180.472148 57.077594 301.642384 57.077594 431.553084 57.077594 647.15628 260.753061 822.56111 511.104603 822.56111M511.104603 879.314869c-282.095482 0-510.779747-200.468792-510.779747-447.761785 0-155.765349 90.730828-292.952616 228.391078-373.167511 37.916202-22.093267-54.244809-171.44833-54.244809-171.44833s281.166884 96.854056 336.633479 96.854056c282.096503 0 510.779747 200.468792 510.779747 447.761785S793.200085 879.314869 511.104603 879.314869L511.104603 879.314869zM291.24559 430.669435m-53.453101 0a52.325 52.325 0 1 0 106.906201 0 52.325 52.325 0 1 0-106.906201 0ZM511.104603 430.669435m-53.453101 0a52.325 52.325 0 1 0 106.906201 0 52.325 52.325 0 1 0-106.906201 0ZM730.963616 430.669435m-53.453101 0a52.325 52.325 0 1 0 106.906201 0 52.325 52.325 0 1 0-106.906201 0Z"  horiz-adv-x="1038" />

    
    <glyph glyph-name="zhifuchenggong" unicode="&#58911;" d="M504.521985-127.658557c-277.687199 0-503.603916 225.916717-503.603916 503.603916s225.916717 503.603916 503.603916 503.603916 503.603916-225.916717 503.603916-503.603916S782.209184-127.658557 504.521985-127.658557zM504.521985 857.167102c-265.345881 0-481.221743-215.87284-481.221743-481.221743s215.875862-481.221743 481.221743-481.221743 481.221743 215.87284 481.221743 481.221743S769.867867 857.167102 504.521985 857.167102zM409.47279 169.5161 234.962954 345.73416c-4.350131 4.393441-4.316893 11.475119 0.076548 15.825249 4.385383 4.355167 11.473104 4.327972 15.825249-0.076548l158.73394-160.283025L769.178937 558.689119c4.382361 4.371282 11.46404 4.350131 15.827264-0.04331 4.358188-4.382361 4.33603-11.470083-0.046332-15.825249L409.47279 169.5161z"  horiz-adv-x="1024" />

    
    <glyph glyph-name="zhifushibai" unicode="&#58912;" d="M504.521985 879.549274c-277.687199 0-503.603916-225.916717-503.603916-503.603916s225.916717-503.603916 503.603916-503.603916 503.603916 225.916717 503.603916 503.603916S782.209184 879.549274 504.521985 879.549274zM504.521985-105.276384c-265.345881 0-481.221743 215.87284-481.221743 481.221743S239.176104 857.167102 504.521985 857.167102s481.221743-215.87284 481.221743-481.221743S769.86686-105.276384 504.521985-105.276384zM756.760064 628.184445c-4.366246 4.371282-11.459003 4.371282-15.825249 0L504.521985 391.769601 268.109156 628.184445c-4.366246 4.371282-11.459003 4.371282-15.825249 0-4.371282-4.371282-4.371282-11.453967 0-15.825249l236.412829-236.413837L252.284914 139.530515c-4.371282-4.371282-4.371282-11.453967 0-15.825249 2.182619-2.185641 5.049133-3.278461 7.912625-3.278461 2.863492 0 5.728998 1.09282 7.912625 3.278461l236.412829 236.413837L740.934815 123.706273c2.182619-2.185641 5.049133-3.278461 7.912625-3.278461s5.728998 1.09282 7.912625 3.278461c4.371282 4.371282 4.371282 11.453967 0 15.825249L520.347235 375.945359l236.412829 236.413837C761.131346 616.730477 761.131346 623.812156 756.760064 628.184445z"  horiz-adv-x="1024" />

    
    <glyph glyph-name="xinxi" unicode="&#58913;" d="M925.271418 793.322479l-826.585815 0c-54.323233 0-98.360192-44.036959-98.360192-98.360192l0-621.923552c0-54.323233 44.036959-98.361215 98.360192-98.361215l826.585815 0c54.32221 0 98.360192 44.037982 98.360192 98.361215L1023.63161 694.962288C1023.63161 749.28552 979.593628 793.322479 925.271418 793.322479zM910.36287 725.101725 522.021238 314.247356 116.098181 725.101725 910.36287 725.101725zM912.384923 42.897252 111.571075 42.897252c-23.762193 0-43.024909 19.263739-43.024909 43.025932L68.546166 676.142663l454.575126-460.09484 432.289564 457.429127 0-587.552743C955.410855 62.160991 936.14814 42.897252 912.384923 42.897252z"  horiz-adv-x="1040" />

    
    <glyph glyph-name="fapiao01" unicode="&#58914;" d="M927.818427 779.120013c0 29.210275-23.775496 52.985772-53.010331 52.985772L161.39483 832.105784c-29.210275 0-52.985772-23.775496-52.985772-52.985772l0-788.476869c0-29.233811 23.775496-53.010331 52.985772-53.010331l479.030098 0c16.151865 0 30.459732 7.411807 40.188304 18.838044l231.315296 220.74966c0.169869 0.169869 0.352017 0.327458 0.521886 0.509606l0.352017 0.327458-0.036839 0.036839c9.279341 9.546424 15.053857 22.526039 15.053857 36.864606L927.81945 779.120013zM693.435259 37.393911 693.435259 158.674115c0 1.819438 1.479701 3.299139 3.299139 3.299139L823.970244 161.973254 693.435259 37.393911zM878.132818 214.959026c0-0.837064-0.375553-1.564635-0.8913-2.146896l-0.285502-0.267083c-0.582261-0.509606-1.303692-0.88516-2.146896-0.88516L696.734398 211.659887c-29.210275 0-52.985772-23.775496-52.985772-52.985772l0-168.030971c0-0.424672-0.302899-0.715291-0.449231-1.091868l-1.935072-1.843998c-0.333598-0.109494-0.569982-0.387833-0.940418-0.387833l-479.030098 0c-1.819438 0-3.299139 1.479701-3.299139 3.323699L158.094668 779.120013c0 1.819438 1.479701 3.299139 3.299139 3.299139l713.414289 0c1.843998 0 3.323699-1.479701 3.323699-3.299139L878.131795 214.959026zM773.083274 657.791713 256.473279 657.791713c-13.731746 0-24.842805-11.111059-24.842805-24.842805s11.111059-24.842805 24.842805-24.842805l516.609994 0c13.731746 0 24.842805 11.111059 24.842805 24.842805S786.815019 657.791713 773.083274 657.791713zM773.083274 508.903731 256.473279 508.903731c-13.731746 0-24.842805-11.111059-24.842805-24.842805s11.111059-24.842805 24.842805-24.842805l516.609994 0c13.731746 0 24.842805 11.111059 24.842805 24.842805S786.815019 508.903731 773.083274 508.903731zM773.083274 359.990167 256.473279 359.990167c-13.731746 0-24.842805-11.111059-24.842805-24.842805s11.111059-24.842805 24.842805-24.842805l516.609994 0c13.731746 0 24.842805 11.111059 24.842805 24.842805S786.815019 359.990167 773.083274 359.990167zM543.284517 211.101161 256.473279 211.101161c-13.731746 0-24.842805-11.111059-24.842805-24.842805s11.111059-24.842805 24.842805-24.842805l286.811238 0c13.731746 0 24.842805 11.111059 24.842805 24.842805S557.016263 211.101161 543.284517 211.101161z"  horiz-adv-x="1024" />

    
    <glyph glyph-name="fenxiang01" unicode="&#58915;" d="M777.247106 317.476911c-64.439638 0-120.615055-35.978423-149.546991-88.892563l-170.186054 86.006839c6.714935 19.442818 10.5421 40.219004 10.5421 61.915142 0 16.366759-2.296299 32.171724-6.198166 47.337121l169.925111 91.581812c29.909194-49.1627 83.829244-82.177628 145.465023-82.177628 93.932346 0 170.358993 76.425623 170.358993 170.358993s-76.425623 170.358993-170.358993 170.358993S606.91165 697.539996 606.91165 603.60765c0-16.081257 2.388397-31.589462 6.573719-46.348608l-168.17628-90.6373c-32.18912 59.627029-95.241154 100.250238-167.628812 100.250238-104.974843 0-190.375885-85.401042-190.375885-190.364629 0-104.974843 85.401042-190.375885 190.375885-190.375885 67.077721 0 126.035508 34.957163 159.956062 87.521333l173.868933-87.87028c-2.905166-12.444427-4.593622-25.348318-4.593622-38.664601 0-93.932346 76.404134-170.358993 170.33648-170.358993S947.606099 53.185572 947.606099 147.118941 871.180476 317.476911 777.247106 317.476911zM777.247106 728.466356c68.850088 0 124.858706-56.008618 124.858706-124.858706s-56.008618-124.858706-124.858706-124.858706c-68.827575 0-124.836193 56.008618-124.836193 124.858706S708.419532 728.466356 777.247106 728.466356zM277.680277 231.631754c-79.891562 0-144.875598 64.995293-144.875598 144.875598s64.984037 144.864342 144.875598 144.864342 144.875598-64.984037 144.875598-144.864342S357.571838 231.631754 277.680277 231.631754zM777.247106 22.260236c-68.827575 0-124.836193 56.008618-124.836193 124.858706s56.008618 124.858706 124.836193 124.858706c68.850088 0 124.858706-56.008618 124.858706-124.858706S846.097194 22.260236 777.247106 22.260236z"  horiz-adv-x="1024" />

    
    <glyph glyph-name="jiankangguan01" unicode="&#58916;" d="M345.311607 424.507576c5.586229-8.378831 28.867468-43.764759 146.202826-211.387431l0.932232-0.932232c6.51846-8.378831 17.695011-13.969153 27.939329-13.969153 11.172457 0 22.349007 5.590322 27.934213 14.901385 50.28936 72.637344 145.273664 209.528084 148.999522 214.181057l0.929162 0.933255c19.555381 32.593326 30.731932 70.771857 30.731932 108.954481 0 114.541733-93.124957 208.594829-208.594829 208.594829-115.473965 0-208.598922-93.124957-208.598922-208.594829C311.786049 497.145943 322.962599 458.966389 345.311607 424.507576L345.311607 424.507576 345.311607 424.507576zM519.453762 692.702827c85.674265 0 155.512866-69.838601 155.512866-155.51389 0-27.939329-7.445576-54.94131-22.349007-81.015152-5.586229-8.383948-81.948407-118.266567-132.231627-190.904934-39.111786 55.874565-123.857912 177.86699-132.236743 189.039447-15.830547 24.214495-25.14161 53.081962-25.14161 81.948407C363.934756 621.930971 433.779498 692.702827 519.453762 692.702827L519.453762 692.702827zM519.453762 692.702827M519.453762 420.782741c63.325257 0 115.473965 52.148707 115.473965 115.473965 0 63.325257-52.148707 115.473965-115.473965 115.473965s-115.473965-52.148707-115.473965-115.473965C403.979798 472.931448 455.199343 420.782741 519.453762 420.782741L519.453762 420.782741zM519.453762 599.581963c34.452673 0 62.392002-27.939329 62.392002-62.393026 0-35.385928-27.939329-62.392002-62.392002-62.392002-34.458813 0-62.393026 27.934213-62.393026 62.392002C457.059714 571.642634 484.994949 599.581963 519.453762 599.581963L519.453762 599.581963zM519.453762 599.581963M961.789123 149.794887 832.344982 400.298198 725.254965 400.298198l-41.905412-54.013171 116.403127 0 118.266567-226.290863 1.861394-1.859347c6.51846-8.378831 6.51846-19.555381 1.864464-28.868491-4.657067-9.311063-13.969153-14.901385-25.14161-14.901385L128.337947 74.364941c-11.17655 0-20.487613 5.590322-25.145703 14.901385-4.653997 10.244318-3.724835 20.488637 2.792603 29.7997l0.933255 0.927115 116.40108 227.223095 132.236743 0-43.769876 54.009078L190.725856 401.225313 61.286832 149.794887c-17.696034-25.14161-19.555381-56.80168-5.586229-82.876546 14.897292-27.939329 41.904389-44.702108 73.565483-44.702108l768.265548 0c30.731932 0 58.667168 16.762779 72.636321 44.702108C982.272643 93.921345 979.479017 125.585509 961.789123 149.794887L961.789123 149.794887zM961.789123 149.794887"  horiz-adv-x="1024" />

    
    <glyph glyph-name="jiantou01" unicode="&#58917;" d="M735.278279-123.676437c-14.080904 0-28.164841 5.371087-38.909037 16.115284L249.813695 338.994394c-21.488393 21.488393-21.488393 56.330693 0 77.819086L696.369242 863.369027c21.488393 21.488393 56.330693 21.488393 77.819086 0 21.486371-21.488393 21.486371-56.330693 0-77.819086L366.538785 377.903432l407.648532-407.64651c21.486371-21.488393 21.486371-56.330693 0-77.819086C763.444131-118.305349 749.360194-123.676437 735.278279-123.676437z"  horiz-adv-x="1024" />

    
    <glyph glyph-name="iconfontfenxiang01xuanzhong" unicode="&#58918;" d="M724.675774 336.612737c-52.752458 0-98.740862-29.451776-122.425284-72.770374l-139.321092 70.40756c5.496178 15.917528 8.630564 32.9259 8.630564 50.686403 0 13.398148-1.87879 26.337855-5.072529 38.753629l139.105175 74.972529c24.487717-40.248679 68.625984-67.274196 119.083166-67.274196 76.900438 0 139.465378 62.565964 139.465378 139.461285 0 76.900438-62.564941 139.465378-139.465378 139.465378-76.895321 0-139.440819-62.564941-139.440819-139.461285 0-13.166881 1.954515-25.862018 5.379521-37.94624l-137.678686-74.197886c-26.350135 48.815799-77.966723 82.069157-137.226385 82.069157-85.938278 0-155.850557-69.913303-155.850557-155.838278 0-85.938278 69.912279-155.850557 155.850557-155.850557 54.910611 0 103.177917 28.616758 130.947378 71.646783l142.334729-71.934333c-2.378164-10.190083-3.756557-20.750603-3.756557-31.650861 0-76.900438 62.545498-139.465378 139.440819-139.465378 76.900438 0 139.465378 62.564941 139.465378 139.465378C864.141152 274.046772 801.576211 336.612737 724.675774 336.612737L724.675774 336.612737zM724.675774 94.936465"  horiz-adv-x="1024" />

    
    <glyph glyph-name="iconfontshoucangxuanzhong" unicode="&#58919;" d="M745.758951-16.832108c-5.884011 0-11.784394 1.478677-17.052374 4.288676L509.822404 104.1892 289.584398-9.916605c-14.877849-7.711636-33.861202-3.76986-44.542472 8.961092-6.874571 8.18645-9.749038 18.983353-7.874341 29.568433l43.394323 244.249887L103.965863 447.065338c-9.897418 9.749038-13.334703 24.023136-8.962116 37.214577 4.377704 13.210883 15.649422 22.608927 29.424146 24.523533l245.701958 34.212196 111.092168 221.794455c6.187933 12.355399 18.615986 20.022009 32.43369 20.022009 14.002922 0 26.502607-7.814989 32.617885-20.398586L654.720515 541.329235l245.273193-37.130665c13.755282-2.082428 24.923646-11.608386 29.132504-24.859177 4.221138-13.250792 0.61603-27.486004-9.4093-37.130665L741.070162 270.132626l40.488133-244.729817c1.738597-10.544147-1.199315-21.233604-8.073886-29.340235C766.53616-12.123876 756.427942-16.832108 745.758951-16.832108L745.758951-16.832108zM509.862313 147.716552"  horiz-adv-x="1024" />

    
    </font>
</defs>
</svg>
